<?xml version="1.0" standalone="no"?>
<!DOCTYPE svg PUBLIC "-//W3C//DTD SVG 1.1//EN" "http://www.w3.org/Graphics/SVG/1.1/DTD/svg11.dtd">
<svg xmlns="http://www.w3.org/2000/svg">
  <defs>
    <font id="DancingScript" horiz-adv-x="484">
      <font-face font-family="Dancing Script" units-per-em="1000" panose-1="0 0 0 0 0 0 0 0 0 0" ascent="920" descent="-280" alphabetic="0" />
      <glyph unicode=" " glyph-name="gid1" horiz-adv-x="260" />
      <glyph unicode="!" glyph-name="gid64" horiz-adv-x="295" d="M115,297q22,57 46,117t48,114.5t47,98T300.5,695T341,720q11,0 19.5-8.5T369,690q0-14-16.5-55T309,537T249,416T183,290.5T121,180T73,104q-3,1-6,2t-6,2q1,26 9.5,59t21,67.5T115,297ZM40-10Q24-10 12-2T0,24Q0,43 20.5,57T65,71q15,0 24.5-7T99,40T81,6.5T40-10Z" />
      <glyph unicode="&quot;" glyph-name="gid76" horiz-adv-x="270" d="M293,576q-15,8-21.5,19.5T265,620q0,20 9,43.5t23.5,41T328,722q12,0 22-10t11-27q-22-22-41-53t-27-56Zm-114,0q-15,8-21.5,19.5T151,620q0,20 9,43.5t23.5,41T214,722q12,0 22-10t11-27q-22-22-41-53t-27-56Z" />
      <glyph unicode="#" glyph-name="gid181" horiz-adv-x="720" d="M114-162q21,25 41,74T194,26.5T230,165q-34-1-68-4t-77-6l-66-5q2,31 31.5,48.5T131,224t114,9q2,11 4.5,24.5T254,281q-29,0-61.5-3T121,272l-66-5q2,30 31,47t77,25.5T270,349q20,102 35.5,185.5T332,670q3,16 12.5,30T393,722q-4-20-14-75T355,515T325,351q33-1 62-1.5t60-2.5q22,102 37,186t25,137q3,16 13.5,30T571,722q-4-16-10.5-52.5t-15.5-87T525,471T501,344q52-2 113.5-6T725,334q-40-34-70-40t-55-6q-32,0-59-0.5T491,287q-4-19-7-33.5T479,226q45-2 103.5-5.5T687,217q-40-34-69-40t-54-6q-28,0-50.5,0T468,170Q447,61 426-13T374-124.5T292-162q21,25 41.5,75T373,28.5T408,167H289Q267,59 247-14.5T196.5-125T114-162ZM422,230l12,56q-37,0-65,0t-57-2l-10-51q32,0 61.5-0.5T422,230Z" />
      <glyph unicode="$" glyph-name="gid195" horiz-adv-x="565" d="M150-162q15,20 29,47t25,58q-50,5-93.5,23T40,17T13,98q0,47 24,77t60,44.5T167,234q-33-34-49-70T102,96q0-46 31.5-73T220-11q17,59 33.5,127.5T286,260q-36,19-69.5,41t-55,53T140,431q0,56 30,102.5t81,78T364,653q0,14 8,28.5T395,707t35,13q-3-13-6-27t-8-37q68-1 94-31.5T536,547q0-40-13.5-83T485,381q-23,5-35,19t-12,30q0,17 9,43t18,53.5t9,47.5q0,21-14,32t-51,12q-13-74-26.5-147T355,323q37-18 71.5-40.5t57-55T506,146q0-60-32.5-103.5T387.5-26T271-57q-19-51-48.5-78T150-162ZM286-10q64,8 99.5,42.5T421,116q0,41-24,68t-59,48q-16-83-29.5-148T286-10Zm20,359q14,74 28,144.5T356,612q-43-10-74-35.5T234.5,519T218,455q0-38 25.5-62.5T306,349Z" />
      <glyph unicode="%" glyph-name="gid211" horiz-adv-x="740" d="M88-87q25,24 62.5,76.5t82,122.5t90,148.5t87,155.5T484,559.5T534,671q4,11 19,22t35,19t38,8q-4-16-23.5-59T554,559.5T490,435T420,304T353.5,185T300,97Q247,15 196.5-36T88-87ZM203,339q-47,0-70.5,34.5T109,453q0,34 10.5,71.5T150,595t48.5,54T262,670q43,0 70-29.5T359,561q0-32-11-70.5t-31.5-73t-49-56.5T203,339Zm6,52q17,0 32,17t26.5,43.5t18,57T292,566q0,24-6.5,39T264,620q-21,0-36.5-17.5t-26-44.5t-16-55.5T180,451q0-26 7.5-43T209,391ZM548-1q-48,0-71,34t-23,79q0,34 10.5,71.5t30,70.5t48,54T607,329q43,0 69.5-29.5T703,220q0-32-11-70T661,77.5T612.5,21T548-1Zm5,52q17,0 32.5,16.5t27,43.5t18,57t6.5,57q0,24-7,39.5T608,280q-21,0-36.5-18t-26-45.5t-16-56.5T524,108q0-26 8-41.5T553,51Z" />
      <glyph unicode="&amp;" glyph-name="gid89" horiz-adv-x="675" d="M231-87q-64,0-112.5,25.5T43.5,6T17,99q0,45 19,88t53,79t81,60.5T272,359q-35,32-53.5,71T200,509q0,54 27,102t76.5,78T418,719q60,0 91.5-28.5T541,608q0-38-13-74.5t-32-60T458,450q-14,0-26.5,12.5T410,491q37,30 61.5,63T496,622q0,28-16,45.5T429,685q-45,0-76-26t-47-67.5T290,501q0-23 4.5-51T315,393.5T363,339q-72-11-125-49.5T156,200T127,99q0-30 12.5-62T181-17t76-22q54,0 103,25t89.5,67.5T516,149t33,109q-19-1-36.5-3t-40-6T413,238q1,51 34,68t79,17q32,0 58.5-4t53-8.5T697,306q-16-33-28.5-39.5T644,260q-18,0-30.5-0.5T588,259q-7-68-38.5-130T469,18T359-59T231-87Z" />
      <glyph unicode="&apos;" glyph-name="gid75" horiz-adv-x="156" d="M179,576q-15,8-21.5,19.5T151,620q0,20 9,43.5t23.5,41T214,722q12,0 22-10t11-27q-22-22-41-53t-27-56Z" />
      <glyph unicode="(" glyph-name="gid83" horiz-adv-x="295" d="M178-87q-28,15-51,56T90.5,68.5T77,192q0,95 23,176.5T159.5,515t79,110.5t83.5,70T393,720q-64-49-110-112.5t-75-135t-43-146T151,181q0-79 15-140t40-99q-6-12-13-18.5T178-87Z" />
      <glyph unicode=")" glyph-name="gid84" horiz-adv-x="315" d="M0-87q-9,0-19,12.5T-34-53Q39-5 98,69t94.5,171T228,454q0,65-16,131.5T139,725q33-8 69.5-45T270,580.5T295,433q0-90-22.5-169t-58-143.5t-76-111T61-62T0-87Z" />
      <glyph unicode="*" glyph-name="gid178" horiz-adv-x="416" d="M390,404q-22,23-48,57.5T291,531q-25-46-52.5-80T171,415q16,22 28,43.5t22.5,43T243,543q-39,0-73,7.5T127,589q23,1 55,2t60,3q-20,30-32.5,57T197,696q0,17 10.5,24T218,733q25-44 39-71.5T288,611q14,44 40,77.5T394,731q-13-37-31-70t-33-66q26,0 50.5-2.5t48.5-11T475,555L340,544q13-17 24-34.5t18-42t8-63.5Z" />
      <glyph unicode="+" glyph-name="gid200" horiz-adv-x="441" d="M171-7q4,29 5.5,53t2,48.5T179,148q-30,0-54.5-1T74,143.5T13,136q12,35 56.5,48.5T177,199v41q0,25 7,52t32,64q3-24 8-67.5t6-89.5q51-1 101-4.5t77-5.5q-36-25-69.5-33T282,148H231q0-41-5-75T208.5,17.5T171-7Z" />
      <glyph unicode="," glyph-name="gid68" horiz-adv-x="216" d="M32-88Q19-80 12-68.5T5-44Q5-24 14,0T37.5,41.5T68,59q13,0 22.5-10T100,26Q76-1 63-26T32-88Z" />
      <glyph unicode="-" glyph-name="gid74" horiz-adv-x="507" d="M55,142q7,22 28,35t47,19t49,7.5t35,1.5q13,0 43-1t65-2t65-2t43-2q-10-23-45.5-38.5T308,144q-21,0-54,3t-71,3q-25,0-52-1.5T83.5,145T55,142Z" />
      <glyph unicode="." glyph-name="gid69" horiz-adv-x="242" d="M72-10Q48-10 38,2.5T28,28q0,11 10,23.5t25,21T91,81q11,0 22-6.5T124,50q0-8-6-22.5t-17.5-26T72-10Z" />
      <glyph unicode="/" glyph-name="gid182" horiz-adv-x="355" d="M-63-162q23,22 52,69T50,17t65,135.5T179.5,300t60,145.5T291,574t38,97q4,11 20,22t38.5,18.5T435,719q-4-12-19.5-48.5t-38-90t-49-116T274,336.5t-54-126t-47-109T140,24Q102-64 46-113T-63-162Z" />
      <glyph unicode="0" glyph-name="gid54" horiz-adv-x="660" d="M273-87q-71,0-117.5,36.5T86,47.5T63,185q0,65 16.5,138.5t48,143.5t77,127.5T308,686t128,34q65,0 114-32t76-94t27-152q0-73-18.5-148T582,151T501,29T396.5-56T273-87Zm14,48q45,0 86.5,33T449,82.5t59.5,124T548,346t14,135q0,57-12.5,101.5t-40,70.5T436,679q-45,0-82.5-25t-68-67.5t-53.5-96t-38-111t-23-112T163,168q0-94 33-150.5T287-39Z" />
      <glyph unicode="1" glyph-name="gid55" horiz-adv-x="392" d="M72-87Q37-87 12-72.5T-34-31q17-1 27.5-2T18-34q22,0 50,3t54,7q17,40 33,99t30,126.5T211,337t23,127t20,100q-53-35-75.5-46T142,507q-13,0-21,8.5T113,548q20,10 57.5,35.5t82.5,61T339,719q7-6 10-16.5t3-22.5q0-23-8.5-48T330,572q-10-66-22.5-139.5T278.5,282t-39-152.5T187-15q9,1 17,1.5T222-13q38,0 67.5-13.5T329-84q-25,3-48.5,4.5T237-78q-29,0-61-2t-60-4.5T72-87Z" />
      <glyph unicode="2" glyph-name="gid56" horiz-adv-x="599" d="M438-87q-33,0-74.5,12.5T277.5-45T192-13q-33-19-62.5-30T73-54Q39-54 16.5-37.5T-6,7q0,24 19.5,38.5T78,60q23,0 50.5-3.5T187,47q46,39 92.5,97.5T365,271t63,138t24,132q0,71-30.5,104.5T344,679q-45,0-75-27t-44.5-68T210,501q0-24 4.5-44T229,414q-4,0-9,0.5T210,416q-29,3-53,24t-24,72q0,54 28.5,101.5t78.5,77T355,720q60,0 100.5-26t61-70.5T537,523q0-40-10.5-83.5T497,352q-25-60-63.5-118.5T349,124T254,33Q319,19 373,9.5T460,0q25,0 43.5,7T553,31q-16-61-43.5-89.5T438-87ZM71-13q14,0 29,5.5T132,8q-19,6-35.5,9T69,20q-18,0-24-5.5T39,4Q40-3 49.5-8T71-13Z" />
      <glyph unicode="3" glyph-name="gid57" horiz-adv-x="542" d="M201-87Q135-87 95-63.5T37-5.5T19,62q0,26 10,51.5T58.5,156T108,173q5,0 12-0.5t23-3.5q-19-15-30.5-43T101,72q0-28 13.5-54t38-42.5T209-41q39,0 75,26t59.5,72.5T367,164q0,38-12,75.5t-41.5,67T232,349q56,24 96,65t62,88.5T412,591q0,49-28,68.5T322,679q-27,0-52.5-11t-42-32.5T211,584q0-16 5-33.5T231,515q-6-12-20.5-23.5T182,480t-25,13.5t-16.5,34T135,568q0,48 29,82t75,52t95,18q43,0 81.5-16T479,656.5T504,579q0-30-11.5-63t-33-63t-51-54T344,361q53-18 84-50t44.5-69.5T486,169q0-46-20.5-91.5t-59-83T316-65T201-87Z" />
      <glyph unicode="4" glyph-name="gid58" horiz-adv-x="508" d="M341-87q-46,3-70,17.5T247-33q0,6 1.5,21.5t7,48T271,125q5,21 10,49.5T291,230q-20,2-41,3t-29,1q-10,0-33-1t-52-2.5t-57.5-4t-49-5T3,216q0,26 15,44t35,37q36,33 87.5,82.5T250,487T361,605.5T453,720q8-4 16.5-11.5T478,685q0-24-20-55q-5-23-15-71T420,443.5T392,296q4,0 8,0t7,0q38,0 58.5,2.5T508,307q-24-33-56-54.5T387,229q-1,0-3,0t-4,0q-1-3-3-15.5T372,181q-4-27-9.5-62.5T352,45t-8-73t-3-59ZM119,298q20,2 42,2.5t48,0.5t50.5-0.5T306,299q13,61 25.5,116T359,519q-30-28-63.5-58T229,401t-64-58q-12-12-23.5-23T119,298Z" />
      <glyph unicode="5" glyph-name="gid59" horiz-adv-x="513" d="M195-87Q125-87 84.5-63.5T26.5-6T9,61q0,26 9.5,52t29,43T97,173q5,0 12.5-0.5T133,169q-19-15-30.5-42.5T91,69q0-27 10.5-52T135-24.5T194-41q39,0 69.5,19t52,50T348,96.5T359,171q0,40-14,74.5t-43.5,56T223,323q-19,0-46-3.5T118,310q5,33 15,77.5T156,480t26.5,93.5t24,82.5T223,715q34-8 62.5-11t52.5-3q43,0 83,6t83,14q3-12 5-20.5t2-17.5q0-29-20.5-46T439,613t-62-7q-37,0-65.5,6T263,618q-4,0-7.5-3t-6.5-8q-9-13-18-39t-17.5-57t-16-62T184,393.5T174,357q20,4 40.5,6t41.5,2q72,0 120-25.5T448,270t24-101q0-70-34.5-128.5t-97-93T195-87Z" />
      <glyph unicode="6" glyph-name="gid60" horiz-adv-x="592" d="M282-87q-79,0-128.5,33.5T81,38T58,168q0,65 17.5,140T126,456t81.5,132.5T318,684t136,36q46,0 76.5-15.5T561,656q0-16-11.5-31T501,600q1,8 1.5,17t0.5,16q0,21-10,35.5T451,683q-47,0-88-31t-74.5-83t-59-115T188,327q34,26 77,40t89,14q53,0 98.5-21T526,295t28-114q0-75-34-136T425-51.5T282-87Zm5,46q38,0 68,19.5t51,52t32.5,73T450,185q0,52-17,84.5t-47.5,48T316,333q-55,0-88.5-27T179,236.5T164,145q0-27 5.5-59T188,25t37.5-47.5T287-41Z" />
      <glyph unicode="7" glyph-name="gid61" horiz-adv-x="439" d="M125-87q-16,0-29.5,13T82-35Q82-8 98,39.5T143,151t67,141q-19,0-44-1.5T115.5,287T68,282q1,31 21.5,47.5t55,23.5t75.5,8q7,0 13.5,0t13.5,0q26,41 65.5,108.5T405,622q-24,0-50-1.5t-51.5-3T254,616q-68,0-93.5,15.5T135,670q0,21 17,49q31-5 62.5-10t64.5-7.5t67-2.5q49,0 100.5,6.5T540,725q-16-21-31.5-41.5T479,643q-46-65-84.5-132.5T315,357q20-2 39-3t39-1q16,0 32.5,1.5T458,360q-24-32-47.5-50T360,292q-17,0-36,0t-39,0q-18-41-38-90t-34-96T199,24q0-13 3-24t13-18q-19-39-47-54T125-87Z" />
      <glyph unicode="8" glyph-name="gid62" horiz-adv-x="561" d="M236-87q-55,0-92,16T85-29T53,27T43,84q0,44 20,78.5t52,64T185,283t74,54q-29,30-56,62.5T159,469t-17,83q0,60 29,96.5T245.5,702T338,719q73,0 120-37.5T505,569q0-47-19-86t-50.5-72T364,348q35-34 65.5-68t49-71.5T497,125q0-64-37.5-112t-97-74T236-87Zm9,53q36,0 71,19t58.5,54T398,120q0,53-30,95t-71,84q-44-30-84.5-62.5T146,167T120,85q0-37 18.5-64t47-41T245-34Zm82,421q46,38 75.5,81.5T432,568q0,55-27,82.5T340,678q-22,0-46-11t-41-36t-17-67q0-52 26.5-94T327,387Z" />
      <glyph unicode="9" glyph-name="gid63" horiz-adv-x="598" d="M215-87q-46,0-78,16T105-21q0,16 11.5,31.5T163,36q0-7 0.5-15.5T165,4q3-21 14-37.5T217-50q47,0 86.5,31t71,83T429,179t36,127q-33-25-76-39t-88-14q-57,0-103.5,23t-74,69.5T96,460q0,76 32.5,134.5t91,92T357,720q86,0 137-38.5t73.5-102T590,441q0-67-16.5-140.5t-48-142t-77-124T344.5-54T215-87ZM341,301q73,0 107.5,46.5T483,471q0,30-6,65.5T456.5,603t-40,51T353,674q-36,0-65-18.5t-48.5-50t-30-70T199,457q0-52 18-87t50-52t74-17Z" />
      <glyph unicode=":" glyph-name="gid70" horiz-adv-x="251" d="M128,228q-14,0-27,8T88,261q0,19 21.5,33T153,308q15,0 24-7t9-24q0-16-17.5-32.5T128,228ZM72-10Q58-10 45-2T32,23q0,19 21,33T97,70q15,0 24-7t9-24q0-16-17.5-32.5T72-10Z" />
      <glyph unicode=";" glyph-name="gid71" horiz-adv-x="250" d="M51-88Q37-80 30-68T23-43q0,21 9.5,46.5T57.5,48T90,67q13,0 23.5-10T125,33Q100,5 84.5-21.5T51-88Zm77,317q-16,0-28,8T88,263q0,19 20.5,33T152,310q15,0 25-7t10-24q0-16-18-33t-41-17Z" />
      <glyph unicode="&lt;" glyph-name="gid206" horiz-adv-x="328" d="M202,44q-19,0-46,12.5t-54,32t-47,40T30,165q37,13 73,38t67.5,56.5T225,323q5-4 9.5-14t4.5-22q0-20-15-39.5T185,210t-51.5-34T80,147q20-13 39.5-24T168,99.5T244,70q-8-9-19-17.5T202,44Z" />
      <glyph unicode="=" glyph-name="gid204" horiz-adv-x="517" d="M60,194q5,27 32,40t68.5,17t88.5,4q34,0 69.5-2t66.5-4.5t49-4.5q-37-25-69-32.5T312,204H215q-29,0-53-0.5T113.5,201T60,194Zm3-88q2,27 29,40t69.5,17t89.5,4q34,0 69.5-2t66.5-4.5t49-4.5q-36-25-68.5-32.5T314,116H218q-29,0-53-0.5T116.5,113T63,106Z" />
      <glyph unicode="&gt;" glyph-name="gid205" horiz-adv-x="337" d="M116,44q-14,0-26,8.5T72,70q47,17 75,29.5T194,123t38,24q-26,13-55,29t-54,34T82,247.5T66,287q0,8 3,16.5T77,320q22-27 56-57.5T206,206t76-40q-4-16-23-37T214,88.5t-52.5-32T116,44Z" />
      <glyph unicode="?" glyph-name="gid66" horiz-adv-x="462" d="M265,119q-25,13-33.5,23.5T223,175q0,47 19,85.5t47.5,73t57,69.5T394,478.5T413,569q0,54-22,82.5T336,680q-34,0-68-27t-56.5-72T189,481q0-17 2.5-32.5T200,413q-49,8-65.5,30T118,497q0,57 27,108t77,83t117,32q68,0 109-35.5T489,582q0-44-16-78.5t-40.5-64t-52-59t-51-64T292,237q-10-34-12.5-59.5T265,119ZM222-10q-16,0-28,8.5T182,23q0,20 21.5,34T247,71q15,0 25-7t10-22q0-19-18.5-35.5T222-10Z" />
      <glyph unicode="@" glyph-name="gid212" horiz-adv-x="613" d="M242-121q-79,0-129.5,30t-75,79T13,92q0,56 23,110t66,97.5T206,369t137,26q78,0 128.5-26.5t75.5-69T572,210q0-37-14-73T519.5,71T462,23T391,5q-31,0-47.5,12T320,48q-2,8-3,15.5T316,79q-33-39-64.5-63T188-8q-26,0-46.5,18T121,64q0,35 20,77.5t53.5,81t74,63T351,310q35,0 58.5-17T433,253q0-20-10.5-28.5t-23-10.5T382,213q1,5 1.5,10t0.5,10q0,17-4.5,31.5T352,279q-28,0-57.5-23.5t-53.5-59T202,124T187,61q0-15 4.5-20.5T202,35q12,0 36,17.5T290,97t51.5,56.5T376,207q13-2 27.5-10T418,180q0-12-11.5-30.5t-23-39.5T372,71q0-7 5.5-16T402,46q31,0 59,23t46.5,59.5T526,203q0,35-18.5,69.5T449,330T344,353q-64,0-116-23t-89-61.5t-56.5-85T63,89Q63,47 81,7t59.5-66T252-85q51,0 107,19T470,3l14-18Q443-60 382.5-90.5T242-121Z" />
      <glyph unicode="A" glyph-name="gid2" horiz-adv-x="631" d="M46-87Q16-71 8-54T0-25Q0,2 19.5,47.5T72,152t75,123q-31,2-59,3t-72,1H0q14,36 44.5,50.5T116,344q17,0 35.5-2t38.5-4q50,72 98.5,136t92,115.5T458,674q48,48 70,48q14,0 31.5-11T596,683q-10-8-25.5-41t-33-83.5T502.5,448T471,326T448.5,207.5T440,108q0-40 8-59.5T475,29q23,0 57,35t76,114l18-19Q595,77 545.5,24T440-29q-48,0-68,41.5T352,126q0,23 3,52t10,72q-44,7-78,11t-65,8q-48-85-93-176T46-87ZM375,299q13,59 30.5,119.5t37,116T481,634q-30-24-67-69T336.5,459T254,326q30-6 60-13t61-14Z" />
      <glyph unicode="B" glyph-name="gid3" horiz-adv-x="650" d="M165-87q-61,0-92,20T41-1Q41,9 52,9q9,0 27.5-4.5T150,0q88,0 162,18.5t128.5,50t84.5,71T555,222q0,39-23.5,62.5t-62,36t-84,16.5T296,341q-19,0-38-0.5T222,340q-22-76-43-157T135,24q-30,0-52,16T61,79q0,9 3.5,23.5T75,137q6,19 20.5,63T130,304t44.5,126.5t51,130.5T278,676q-40-9-66-21t-41-21t-23-9q-6,0-15.5,7t-17,16T108,664q54,22 112,39t140,17q36,0 79-5.5t82-22t64.5-49T611,557q0-43-18.5-74.5t-49.5-54t-68-37T402,368q62-8 103.5-25.5t66-40.5t35-47.5T617,207q0-59-31-106T504.5,19t-111-58.5T273-75T165-87Zm67,465q56,2 110,13t97.5,32.5t69.5,56T535,565q0,48-26,74t-68,36t-90,10q-1,0-2,0t-2,0q-34-67-62-145.5T232,378Z" />
      <glyph unicode="C" glyph-name="gid4" horiz-adv-x="570" d="M250-87q-76,0-124.5,36t-71,93T32,160q0,79 24,158.5T122.5,470T219,598t115.5,88.5T457,719q44,0 74-20.5T561,628q0-30-10.5-67t-28-71.5T483,433t-45-22q-10,0-21,7t-20,24q15,17 34,41.5t36,52t28,54T506,636q0,18-10,28.5T461,675q-44,0-90.5-33T281,553.5t-77.5-124T149,288.5T129,151q0-48 14.5-91.5t46.5-71T274-39q54,0 107.5,30t98,79T551,175l26-17Q542,91 493,35.5t-110.5-89T250-87Z" />
      <glyph unicode="D" glyph-name="gid5" horiz-adv-x="687" d="M191-87q-35,0-66.5,9.5T70-37q3,24 14.5,70T113,137.5T149,258t37.5,118.5t33,99T241,537q3,8 10,24t18,33t25.5,28.5T326,634t38-14q-31-70-62.5-155.5t-60-176t-52-176T151-44q8-3 22.5-4.5T201-50q65,0 124,31.5t108.5,84t86.5,118T577,318t20,132q0,81-27.5,131.5t-75.5,74T384,679q-65,0-117-23.5t-81.5-64T156,499q0-11 2-23.5t7-24.5q-43,0-61.5,18.5T85,515q0,35 25.5,71t71,66.5t105.5,49T417,720q98,0 157-37.5t85.5-101T686,440q0-86-27.5-164.5T582.5,131T470.5,16t-135-76T191-87Z" />
      <glyph unicode="E" glyph-name="gid6" horiz-adv-x="533" d="M209-87Q145-87 97-61.5T22.5,6.5T-4,101q0,44 19,87t53.5,78.5t81,60T251,359q-36,32-54,71t-18,80q0,53 27,101t76,78t114,30q61,0 94-29.5T523,604q0-39-14-74.5T475.5,472T437,450q-14,0-26.5,12.5T389,491q37,30 62.5,64T477,625q0,30-20,45.5T405,686q-45,0-75.5-27.5t-46-70T268,501q0-43 16-86.5T342,339q-72-11-125-49.5T135,200T106,99q0-30 12.5-63t41-55.5T236-42q55,0 108,30.5T441.5,69T513,175l27-17Q503,89 453,33.5t-111-88T209-87Z" />
      <glyph unicode="F" glyph-name="gid7" horiz-adv-x="522" d="M188-87q-53,4-69.5,26T102-6q0,37 13,89t34,111t46,117q-11-1-34.5-3t-48-4.5T73,298q3,31 23.5,48.5t53,25.5t70.5,9q26,72 53.5,140.5T329,647q-6,1-14,1.5T293,649q-61,0-94.5-13t-46-37T140,540q0-25 5-45.5T160,450q-47,8-67,30.5T73,537q0,52 38.5,92t104,63T363,715q53,0 106-7t99-7q25,0 48,3.5T669,716q-48-53-78.5-71T531,627q-24,0-62,6.5T387,643q-13-32-28-74t-30.5-90T297,380q52-4 94-9t93-7q-12-16-24.5-25.5t-33-13.5t-56-6T278,316q-8-30-17-61t-15.5-53T237,175Q209,79 198.5,18.5T188-87Z" />
      <glyph unicode="G" glyph-name="gid8" horiz-adv-x="585" d="M238-87q-56,0-103,29.5t-75,86T32,164q0,77 24,156t66,150.5T218,598t114.5,88.5T454,719q44,0 70-16.5T561.5,659T573,601q0-35-12.5-70t-34-58T479,450q-12,0-22,7t-20,26q15,10 33.5,35T503,573.5T517,628q0,20-12.5,33.5T463,675q-45,0-92.5-33.5t-90.5-89t-77.5-124T148,288.5T128,153q0-91 39.5-141.5T262-39q41,0 75.5,26t61,68.5T441,148t20,98q-25,5-51.5,7.5T354,256q-16,0-32-0.5T288,254q9,35 28.5,51.5T368,322q30,0 60.5-9.5t62-20.5T552,274l-10-31q-18-55-29.5-91.5T495,89.5t-8-46T485,1q0-20 1-41.5T488-93q-30,4-44.5,17.5T424.5-44T420-9q0,5 0,10t1,10q-35-43-80.5-70.5T238-87Z" />
      <glyph unicode="H" glyph-name="gid9" horiz-adv-x="663" d="M72-87q6,36 13.5,73t19,82t29,103T176,306q-15-1-32.5-3T111,300q0,32 24,49t63,25q4,14 7,22t7,20t12,33.5T245.5,511T281,616q2,5 7,20t5,28q0,8-2.5,11T280,678q-20,0-40.5-18T202,614.5t-27-57T165,505q0-8 2-18t8-27q-42,0-60.5,18.5T96,526q0,34 20.5,68t53,62.5t69,46T306,720q32,0 44-17t12-38q0-11-2.5-22T354,622L281,382q12,1 24.5,1t25.5,0q49,0 92-2t83-6q25,84 42.5,138t31,89.5T604,665q4,8 11.5,21.5t22,24T676,721q-13-35-31.5-92.5T607,503.5T571,370q14,0 39.5-1.5T658,367q-31-31-55-38.5T559,321q-11-46-20-88t-15-78Q512,91 506.5,43.5T501-34q0-16 1.5-28.5T506-87q-51,5-69.5,24.5T418,6q0,23 3.5,51T434,123q8,37 22,85t34,112q-61,0-101-1t-70-2t-60-4q-1-4-5-17t-14-46t-30-97T156-19q-11-37-38-52.5T72-87Z" />
      <glyph unicode="I" glyph-name="gid10" horiz-adv-x="503" d="M-18-88q4,43 28,62.5T72,0t82,6q18,38 34.5,91.5t32,114.5t30,124.5t27.5,123T303,568t23,81q-51-1-90.5-4T161,637T89,625q11,50 63,72t159,22q53,0 110-4t105-9t75-9q-34-32-64-39.5T485,650q-33,0-58.5,0T377,649q-7-34-15.5-83t-19-105T322,349T302,244.5T284,164q-13-52-31-95T212,4Q265,0 319-6t119-8q-40-37-76-46.5T303-70q-67,0-111.5-0.5t-77.5-2T50.5-78T-18-88Z" />
      <glyph unicode="J" glyph-name="gid11" horiz-adv-x="440" d="M104-86q-26,0-54.5,9.5T1.5-38T-18,49q0,40 9.5,79.5t27.5,66T64,221q14,0 39-11q-19-47-28.5-88T65,49Q65,9 82-14t45-23q24,0 44.5,21.5T212,61q15,43 32,103.5T278,293t32,136t27,126.5T356,654q-48-1-84.5-3.5t-67-7.5T142,631q7,47 50,67t130,20q42,0 87-4t83.5-9t59.5-9q-16-27-44.5-34T461,655q-16,0-33-0.5T403,654q7-9 10-19.5t3-19.5q0-13-7-56.5t-19.5-106T360,320T322.5,183T278,63Q251,5 223-27.5T165-73T104-86Z" />
      <glyph unicode="K" glyph-name="gid12" horiz-adv-x="637" d="M542-87q-24,0-54.5,24.5T422.5,2T355,90t-62.5,96.5T242,275L151-19q-7-24-25.5-34.5T85-66.5T43-69Q57-38 71-2.5T102,83t41.5,121T203,376t85,240q2,7 7,19.5t5,23.5q0,9-4.5,14T280,678q-24,0-45-18.5t-38-46T170.5,557T161,506q0-23 10-46q-43,0-61.5,18.5T91,525q0,34 21,68.5t53.5,63t69,46T302,720q34,0 44.5-18.5T357,662q0-11-2-21t-5-19L276,382q11,7 25.5,18T345,433q56,44 108,92t96,98.5T625,723q12-11 16-27.5t4-26.5q0-31-25.5-67.5t-67-75.5T462,449t-98-71t-88-58q32-49 61.5-93T403,140.5t84.5-88T604-45q-9-17-27-29.5T542-87Z" />
      <glyph unicode="L" glyph-name="gid13" horiz-adv-x="610" d="M437-87q-37,0-83,15T259.5-36T165,4q-25-27-54-42T49-53Q14-53-11.5-37.5T-50.5,0T-64,40q0,20 18,35T18,90q27,0 59.5-5.5T144,70q23,40 42.5,94T225,277.5T263,394q-50,17-77,47.5T159,503q0,20 10,39.5t29,33T243,589q-13-16-16.5-36T223,521q0-33 15-56t37-36q19,57 40.5,109.5t48,93t59,64.5T496,720q23,0 48.5-9.5t44-32.5T607,612q0-34-14.5-73T547,464.5t-79.5-59T350,380q-2,0-4.5,0t-4.5,0q-19-58-40-117T256,150T204,54q39-11 86.5-25t95-23.5T469-4q24,0 44.5,5.5T557,18q-20-56-49.5-80.5T437-87ZM39-16Q65-16 81-4.5T113,24Q82,35 55,42.5T8,50q-19,0-27.5-7T-28,26Q-28,10-8-3T39-16ZM352,413q44,3 78,28t58,60t36.5,71.5T537,636q0,26-10,35.5T504,681q-29,0-55-37t-49.5-97.5T352,413Z" />
      <glyph unicode="M" glyph-name="gid14" horiz-adv-x="806" d="M-5-87Q0-72 24.5-18.5t66,143T189,337T316,614q4,8 6.5,17t2.5,16q0,10-6,16t-23,6q-42,0-68.5-25.5t-39-62.5T176,508q0-9 1-21t3-27q-24,0-39.5,14.5t-23.5,36T109,551q0,32 18.5,62T176,667.5T242.5,706T315,720q37,0 63-20.5t40-74T432,472q0-65-4.5-131.5T418,216t-5-99q20,59 49.5,125.5t63.5,132T593,498t59.5,101.5T693,664q14,22 25,33t30,11q14,0 44-11q-9-19-21-60.5T745,540q-15-60-30-131.5T688,264T668.5,125.5T661,10q0-26 2.5-41t7-26.5T681-87q-43,0-65.5,13t-30,41.5T578,43q0,111 25.5,233.5T663,529q-28-40-58-95T546,318T491,197.5t-46-110T414,3q-9-3-12.5-4T393-2q-35,0-44.5,42.5T339,157q0,39 1,83.5t3,91t3,92.5t1,88q0,15-0.5,30T346,571Q270,394 217.5,268.5T128,64.5T60-50.5T-5-87Z" />
      <glyph unicode="N" glyph-name="gid15" horiz-adv-x="674" d="M56-87Q71-37 90,22.5t44,140T192,354t76,262q1,3 4,15t3,24q0,8-2.5,11T262,669q-21,0-40.5-17t-35-42.5t-24-53T154,507q0-24 10-47q-44,0-62,18.5T84,525q0,34 21,68.5t53.5,63t68,46T291,720q35,0 57.5-25.5t37-69.5T410,525t19-118q12-80 19-127.5T459.5,204t8-47t7.5-43q12,48 24.5,101.5T525,324t25.5,107.5T576,530t25.5,81.5T626,668q9,16 28.5,34.5T707,721q-17-45-38.5-111.5T625,465.5t-42.5-158T546,151.5T520.5,14T511-87q-37,0-60.5,17.5T415-1q-4,17-12,57t-18,94.5T364,265T343,382.5t-18,103T312,555q-45-164-77-277.5t-56-185T136-18T98-72T56-87Z" />
      <glyph unicode="O" glyph-name="gid16" horiz-adv-x="655" d="M242-87q-58,0-106,30.5T60,30T32,164q0,77 24,155.5t66,150t98,128t119.5,89T470,719q10,0 29.5-4T538,691q-6,1-13.5,1.5T509,693q-52,0-105-32.5T303,573T217.5,448.5T158,304T136,158q0-52 14-97t45-72.5T277-39q55,0 103,33t87,88.5t67,124t43,141T592,486q0,29-4,62.5T574.5,606T547,630q-17,0-37-21.5T471,554t-33.5-69.5T417,419q-34,7-48.5,22T354,477q0,27 19,60t49.5,63.5t64,50.5T549,671q30,0 48.5-21.5T626,594t14-72.5t4-71.5q0-102-25-186.5T551.5,114T456.5,4t-108-68T242-87Z" />
      <glyph unicode="P" glyph-name="gid17" horiz-adv-x="559" d="M117-87Q87-87 60.5-71T34-30q0,13 4.5,28T47,26q31,95 58,177.5t54.5,159t58,153.5T286,677q-38-8-65-20.5t-44-22T152,625q-5,0-14.5,7T121,648t-7,16q28,12 65.5,25T261,711t88,9q47,0 96-12.5t90.5-37t67-61T628,524q0-53-24-91t-63.5-64T455,327t-91.5-24T282,292t-54-3h-6q-28-99-55-197.5T117-87ZM231,320q56,4 112,19t101.5,41.5t73,66.5T545,540q0,50-26.5,81t-68,47T363,685q-36-70-69-165.5T231,320Z" />
      <glyph unicode="Q" glyph-name="gid18" horiz-adv-x="728" d="M559-119q-48,0-89.5,24.5T390-39q-25-12-51.5-18.5T283-64q-39,0-62.5,10.5T185-28T168.5,2T164,26q0,20 18,41t64,21q42,0 82-18.5T411,26q43,39 76.5,97.5t56.5,125t35,131T591,496q0,81-32,132T454,679q-58,0-108-32.5t-89.5-87T188.5,437T145,296.5T130,157q0-20 2.5-45.5T142,57q-38,0-59.5,20.5T52.5,131T44,201q0,74 20,148.5t56.5,141T208,609t113.5,81.5T454,720q103,0 163-66t60-182q0-61-16.5-127T614,215T543.5,96T455,2q33-16 69-27.5T598-37q26,0 38,5t33,10q-12-42-31.5-63t-40-27.5T559-119ZM265-34q27,0 50,8.5T354-10q-29,24-58.5,42T235,50q-20,0-30.5-8.5T194,19q0-10 6.5-22.5t22-21.5T265-34Z" />
      <glyph unicode="R" glyph-name="gid19" horiz-adv-x="616" d="M505-121q-24,0-55,26T385.5-27t-66,92.5T258,167t-49,92q-27-92-51.5-181.5T111-88Q82-88 56.5-72T31-30q0,11 5,26t9,29q29,87 52,155.5t43.5,126t42,114T230,539t60,140q-39-8-68.5-21t-48-23T148,625q-5,0-15,6.5t-17.5,16T108,664q28,11 65.5,24T256,710.5t93,9.5q45,0 93-10.5T531,676t66-60t25-89q0-47-21-81.5T545,387t-77-39t-85-23.5T303.5,313T243,309q32-51 63-99t66.5-95.5t82.5-95T566-77q-4-20-24.5-32T505-121ZM232,339q56,4 110.5,18t99,39t71,62.5T539,547q0,52-26,81.5T446,671t-86,14q-34-67-66-157.5T232,339Z" />
      <glyph unicode="S" glyph-name="gid20" horiz-adv-x="567" d="M233-87q-58,0-110.5,20T37-6T4,96q0,54 24,84.5T88,223t70,12q-32-34-48.5-70T93,96q0-34 17.5-63.5t52.5-48T250-34q45,0 87.5,15t70,45T435,101q0,41-23.5,70.5t-60.5,53t-78,45T195,316t-60.5,58T111,453q0,41 20.5,87.5T190,628t92,66.5T402,720q69,0 97-29t28-76q0-37-13-79t-31.5-80T447,391q-22,5-33,17.5T403,442t8.5,47t20,54t20,54.5T460,644q0,18-10.5,28T407,682q-48,0-88-21t-69.5-53T204,540.5T188,476q0-36 23-61.5T270.5,368t77-42t77-47T484,217t23-88T483.5,37T420-30.5t-88.5-42T233-87Z" />
      <glyph unicode="T" glyph-name="gid21" horiz-adv-x="540" d="M233-87q-55,0-76,21.5T135-10q0,29 11.5,69.5T170,137q24,71 50,140t52.5,133t51,122T369,639q-68-1-117.5-4T161,627.5T76,615q5,42 39.5,64.5T208,711t133,9q39,0 73.5-1.5t66-4.5t61.5-6q63-6 100.5-8t53.5-2q-30-28-75.5-40.5T525,642t-95-3q-48-118-88-245T268,143q-13-48-21.5-81.5T234,0.5T230-58q0-5 0.5-11.5T233-87Z" />
      <glyph unicode="U" glyph-name="gid22" horiz-adv-x="750" d="M588-99q-37,0-63.5,33T498,13q0,8 0.5,22T500,65Q464-2 412-45T287-88q-67,0-104.5,40T145,64q0,44 12,95.5T187,266t36,110.5T253,486t12,102q0,90-54,90q-27,0-46-17t-31.5-42.5T115,567t-6-44q0-15 4-32.5t9-31.5q-48,0-68.5,22T33,536q0,31 15,63t42.5,59.5t64.5,44T235,719q61,0 88.5-35T351,590q0-37-9-82t-23-93t-28-93q-25-81-41-140.5T234,75q0-46 19-77.5T317-34q41,0 75,25.5t59.5,66T495,143t27,84q14,59 31,126t35.5,132T626,603t37.5,84.5T700,719q10,0 27.5-10.5T764,680q-9-7-26-42t-38-90T657.5,427t-39-135.5T590,158T579,44q0-62 21-82t73-20q-11-19-37-30T588-99Z" />
      <glyph unicode="V" glyph-name="gid23" horiz-adv-x="669" d="M245-87q-16,0-38.5,6.5t-40,26T149,2q0,31 12,75t30,98t36,116.5t30,130T269,559q0,35-5,62t-18,42t-38,15q-26,0-44-15t-29.5-39t-17-50T112,525q0-17 3.5-33T127,460q-49,0-71,23T34,540q0,30 15,62t41.5,58.5t62,43T228,720q68,0 103-49.5T366,535q0-55-12.5-115T323,299.5T286.5,182t-31-105.5T243-8q0-16 4.5-25T267-42q29,0 65.5,27T408,58.5T484,164t67,123t47.5,127T616,530t-19,81t-48,38q14,30 34.5,43.5T620,706q27,0 51-34t24-96q0-54-20.5-123.5T618,308.5t-81.5-145t-96-127T340-53.5T245-87Z" />
      <glyph unicode="W" glyph-name="gid24" horiz-adv-x="953" d="M246-87q-10,0-26,3T187.5-72.5T160-46T149,2q0,25 10,65.5T193,186q18,59 35.5,116.5t29,119.5T269,554q0,41-5,69t-18.5,42.5T208,680t-42-13t-30-34.5T118,585t-6-52q0-44 15-73q-49,0-71,23T34,540q0,30 15,62t41.5,58.5t61.5,43T227,720q68,0 103.5-50T366,528q0-69-18.5-143.5T301,222q-10-32-23.5-70.5t-24-79T243-8q0-19 4.5-26.5T265-42q27,0 57.5,23T384,43t59.5,87T496,228.5t40,96T557,404q38,0 59-21t21-40q0-10-8.5-34T600,238q-16-38-33-80.5t-28.5-84T527-4q0-20 5.5-29T553-42q28,0 64.5,27.5t75.5,75t76,107T836,291t47.5,126T901,530q0,55-19.5,78T833,641q18,29 38.5,42.5T908,697q23,0 47.5-29.5T980,575q0-53-20.5-122t-56-143.5t-81-145T725.5,37T622-53.5T523-87q-26,0-46.5,10.5t-32,30T433-1q0,12 3,25t7,26q-49-62-98.5-99.5T246-87Z" />
      <glyph unicode="X" glyph-name="gid25" horiz-adv-x="706" d="M45-112q3,30 9.5,48t17,31.5T97-3q33,35 59,63t51,55.5T260.5,177T327,257q-4,34-7,65.5t-5,60t-3,54T310,484q-3,70-6.5,114T289,663t-38,21q-25,0-43-14.5t-30-38T160,582t-6-50q0-35 13-64q-49,0-69,22T78,544t16,63.5T137,665t62,42t74,16q48,0 76-25t41.5-65.5t17.5-88t4.5-93.5t2.5-81q77,104 131.5,194.5T637,728q8-5 18-21.5T665,675q0-20-19.5-58.5t-53.5-90t-79-111T417,294q3-63 10-121T445.5,69.5T474-2.5T513-29q32,0 75,55.5T689,182l22-18Q670,83 635.5,29T566-52.5T488-80T417-55T372,10.5t-25.5,88T333,191Q275,122 218,60.5T115.5-46.5T45-112Z" />
      <glyph unicode="Y" glyph-name="gid26" horiz-adv-x="706" d="M286-187q-61,0-102.5,25.5T142-88q0,31 19.5,56T218,1q-6-27-8.5-41T207-67q0-40 22-62.5T298-152q34,0 60.5,11.5t47,32t36,47.5t27,58.5T488,62q16,64 25,125.5T534,287q-39-63-90-102.5T325,145q-67,0-95,37t-28,91q0,37 9.5,80.5t22.5,89t22.5,88T266,606q0,30-11.5,51T212,678q-27,0-46.5-15.5t-32-40.5T115,569t-6-54q0-16 2.5-27t9.5-29q-49,0-69,22.5T32,536q0,30 15,62.5t42.5,60T154,703t80,17q40,0 66-15t38.5-40T351,610q0-22-7-53t-21-82t-25-96.5T287,293q0-42 16-68t55-26q34,0 64.5,19.5t57.5,53T529,348t38,91q13,38 26.5,85.5t29,92.5t33,74T693,720q11,0 30.5-10T761,682q-22-33-37.5-63t-29-65T667,471.5t-31-115T596,193q-13-52-29.5-105.5T526.5-15T470-103t-78-61.5T286-187Z" />
      <glyph unicode="Z" glyph-name="gid27" horiz-adv-x="680" d="M490-87q-42,0-88.5,15t-91,35.5T229,0q-35-25-68-39.5T96-54Q63-54 40-40.5T4.5-6.5T-8,33q0,22 18.5,39.5T77,90q30,0 66-7t75-18q47,47 95.5,113T406,314q-29-1-59-4t-76-9l-30-4q2,34 24,52.5T322.5,375t76.5,7q15,0 25-0.5t21-1.5q38,64 67,121t45,99q-21,6-38.5,12T477,627q-80,29-126.5,40T275,678q-31,0-56-12.5T179.5,621T165,530q0,7 1,1t3.5-15.5T174,501q-39,7-56.5,27T100,580q0,68 52.5,104T305,720q55,0 103.5-9.5t92-22t84.5-22t82-9.5q10,0 25,1t25,3q-22-22-37-33t-26-16q-21-49-52.5-111T530,373q38-3 62-5.5t52-2.5q-16-22-32.5-32T569,320t-73-4q-48-76-102.5-146.5T285,47q65-19 129-35T524-4q25,0 46,5.5T614,18q-22-59-51-82T490-87ZM88-21q18,0 38,12.5T171,23q-31,12-58,21T65,53T34.5,45.5T25,27Q25,11 43-5T88-21Z" />
      <glyph unicode="[" glyph-name="gid85" horiz-adv-x="438" d="M233-87q-33,0-69.5,4T96-73.5T48-65q3,5 6,12.5t7.5,25T73,25t18,95t27.5,152T158,496q15,86 38.5,130.5t50,61T295,704q14,0 34-1.5t42-1.5q27,0 55.5,4.5T482,725q-1-44-17.5-65t-42-27T367,627q-25,0-53,5.5T259,643q-14-41-27.5-98.5T206,421.5t-23.5-132t-22-127T141.5,55T125-18q54,0 90,1t62,3t47.5,6T370,3q0-46-32.5-68T233-87Z" />
      <glyph unicode="\" glyph-name="gid179" horiz-adv-x="604" d="M488-167q-49,9-81,55.5T346,28q-11,35-22,77t-23.5,92t-26,107t-29,123T212,567T173,724q27,0 51-17t31-36q15-39 32.5-100.5T324,435t37.5-152.5t37-153t35-137t30.5-105T488-167Z" />
      <glyph unicode="]" glyph-name="gid86" horiz-adv-x="457" d="M14-88q3,36 20.5,54.5t44,25T132-2q26,0 59.5-3T255-10q17,47 33,117t31.5,149.5T349,414t26,143.5T396,663H329q-64-1-111.5-6T125,640q0,52 35.5,67T256,722q47,0 93.5-5.5T443,701q-1-18-6-55.5T425,558T409.5,451.5T392,338T374,229t-17-93q-4-24-12.5-58T321,10T282-46.5T221-69q-57,0-110-2.5T14-88Z" />
      <glyph unicode="^" glyph-name="gid221" horiz-adv-x="210" d="M185,406q-16,27-33,45t-38,37q-27-9-50.5-20T14,440q-7,5-10,12T1,464q0,15 13.5,30t33,27.5t38,20.5t29.5,8q12,0 28-10.5t31.5-27t25.5-35T210,444q0-10-5.5-20.5T185,406Z" />
      <glyph unicode="_" glyph-name="gid183" horiz-adv-x="887" d="M-2-73Q4-34 44.5-13.5T154.5,14T316,21q69,0 128.5-2.5t112.5-6T659,6t97-4q-52-34-96-48T586-60q-69,0-135.5,2.5T331-52.5T247-50q-49,0-82.5-1t-60-4t-51-7.5T-2-73Z" />
      <glyph unicode="`" glyph-name="gid244" horiz-adv-x="138" d="M113,403q-23,28-49.5,53.5T-4,513q2,20 11.5,29.5T28,552q15,0 34-13.5T98.5,505T127,466.5T138,439q0-7-6.5-19T113,403Z" />
      <glyph unicode="a" glyph-name="gid28" horiz-adv-x="444" d="M56-47Q23-47-1.5-25T-26,41q0,35 16,76t44,81t64,72.5T175,323t82,20q43,0 73-22t30-58q0-27-19-39t-45-7q2,9 3.5,18t1.5,19q0,20-8,36t-34,16q-28,0-57-19t-55.5-49.5T99,170.5T66,99T54,36Q54,4 77,4t51,22.5T184.5,83T239,152.5T284,213q3,5 8,5q4-1 15.5-4.5T329,203t10-18q0-10-8.5-25.5t-20-34t-20-37T282,53q0-13 7-24.5T312,17q24,0 67.5,35.5T468,173l19-19q-24-54-57.5-95.5T359-6.5T284-30q-41,0-61,26T201,52q0,2 0,3t0,2Q161,9 127.5-19T56-47Z" />
      <glyph unicode="b" glyph-name="gid29" horiz-adv-x="409" d="M105-73Q48-73 18.5-37.5T-11,60q0,49 17,116T51,316.5t62.5,144t70.5,128T252,680t55,34q20,0 30-23t11-46q0-28-12-68t-34-85t-51-89t-63.5-80T116,266q-7-13-17.5-45t-19-73T71,66Q71,26 82.5-2.5T123-31q26,0 56,24t49,58q-37,20-56,56t-19,76q0,49 26.5,79T244,292q32,0 53-24.5T318,192q0-29-7.5-61.5T288,66q5,0 8.5-0.5T306,65q35,0 60,19t42,45t27,47l15-21q-25-59-61.5-90T293,34q-5,0-10.5,0T272,35q-28-45-69.5-76.5T105-73ZM245,84q9,20 13.5,40.5T263,169q0,36-8.5,53T234,239q-13,0-22.5-18T202,178q0-21 9-49t34-45ZM135,329q25,23 48.5,53.5t44,64t36,66t25.5,59T301,614q0,2 0,3.5t0,2.5q-9-3-29.5-29t-46-67.5t-49.5-92T135,329Z" />
      <glyph unicode="c" glyph-name="gid30" horiz-adv-x="333" d="M113-56Q61-56 27.5-23.5T-6,76q0,49 19,96t51,84.5T135.5,316T216,338q42,0 60.5-21T295,268t-13.5-54.5T245,187q-19,0-31,19q10,7 21,26t11,49q0,8-4,12.5T227,298q-25,0-52.5-22.5t-51-58t-38-75T71,70q0-28 14.5-51.5T142-5q38,0 79,22t77,61.5T356,173l20-18Q352,94 309.5,46.5t-94-75T113-56Z" />
      <glyph unicode="d" glyph-name="gid31" horiz-adv-x="491" d="M69-30q-19,0-38.5,9.5T-2.5,9T-16,60q0,33 16,74t43.5,82t64,75T185,346t83,21q23,0 36-7.5T317,335q0-5-2-11.5T305,312q-4,6-14,8.5T270,323q-33,0-63-18.5T152,257t-43.5-63T80,128.5T70,74q0-19 8-30.5T102,32q27,0 64.5,31.5t77,91T315,297q22,57 46,116.5T409,528t47.5,98t45,68.5T541,720q11,0 19.5-8.5T569,690q0-17-16.5-54.5t-42-89.5t-55-112.5t-55-124t-42-125T342,69q0-24 4.5-32.5T362,28q22,0 49,17t55,50.5T517,176l19-16q-22-55-56-97T407-2.5T330-26q-41,0-57,26T257,61q0,16 2.5,32.5T265,126q-31-45-65.5-80.5T132-10T69-30Z" />
      <glyph unicode="e" glyph-name="gid32" horiz-adv-x="341" d="M116-44Q52-44 17.5-9.5T-17,77q0,44 22.5,93.5t60.5,93T150,334t92,27q26,0 49.5-13.5T315,294q0-38-22-71t-59-59t-81.5-42.5T63,100q-1-4-1.5-8.5T61,77q0-5 1.5-17.5T71,33T94,9T138-1q42,0 84.5,23.5t80,62.5T365,172l20-16Q358,96 315.5,51t-94-70T116-44ZM74,137q26,3 58,18t61.5,38T242,243.5T261,299q0,11-4,15t-13,4q-23,0-48-16.5t-49-43T104,200T74,137Z" />
      <glyph unicode="f" glyph-name="gid33" horiz-adv-x="330" d="M-1-280q-11,0-26.5,7t-27,27.5T-66-184q0,43 14.5,112.5t40,154T48.5,256t74,171.5t82,148.5T289,681t81,39q26,0 34-15.5t8-35.5q0-43-23.5-94T326,472.5T238.5,375T139,296q-4-10-8-20t-8-20q11-4 17.5-14t7.5-21q8-43 16-76.5T188.5,92T236,73q35,0 62,26t55,73l22-16q-32-64-72-93.5T231,33q-17,0-35.5,7T160,60Q159-2 145.5-62.5T109-172T57.5-250.5T-1-280Zm28,62q11,0 23.5,19T75-149T97-80.5t16,74T119,60q0,29-6.5,51.5T90,162Q67,93 49,29T21-87.5T11-175q0-43 16-43ZM168,366q61,57 104,111t65.5,95.5T360,631q0,8-8,8q-24,0-55-36.5T233,504T168,366Z" />
      <glyph unicode="g" glyph-name="gid34" horiz-adv-x="403" d="M50-280q-25,0-46.5,15T-18-216q0,32 18.5,57.5t49,47T115-72t68,34q11,27 21,58t19,67q-35-44-73.5-73T71-15T7.5,13T-16,87q0,53 26.5,99.5t68.5,83t90,57T261,347q32,0 48-11.5T325,309q0-12-7-19t-9-8q-10,11-20.5,14.5T264,300q-39,0-75-22t-63.5-56.5T82,150T66,83q0-20 9-30.5T97,42q28,0 68,36.5T242,167q2,8 3.5,14.5T248,194q10,40 24,59t39,19q5,0 12.5-1t16.5-3q0-18-10-59t-27-95.5T265,2q31,13 63,36.5t59,57T428,170l18-18q-16-46-49.5-84T324,2.5T252-40q-27-66-58.5-120.5t-67-87T50-280Zm-4,46q18,0 49.5,34T164-85q-37-18-68-37T46-162T27-206q0-13 5.5-20.5T46-234Z" />
      <glyph unicode="h" glyph-name="gid35" horiz-adv-x="494" d="M46-38Q24-38 14.5-4T5,75q0,46 15.5,111t42,137t59,141t67,125.5t66,90.5T310,714q21,0 32-23t11-48q0-27-12.5-66.5T306,492t-51.5-88.5t-64-79.5T119,266q-13-34-20.5-63.5T88,147T85,96q0-5 0.5-10.5T86,75q4,6 13,31t24.5,58.5t38.5,66t54,54T287,306q34,0 53-15.5t27-38t8-45.5q0-32-10.5-60t-21-52.5T333,48q0-18 8-25t19-7q22,0 51.5,22t59,58.5T521,177l16-17q-23-50-54-92T415,1T335-24q-38,0-58,20T257,46q0,21 7.5,46.5T279,144t7,47q0,24-10.5,33T250,233q-25,0-45-19.5T169,163T139,97.5T111,32T81.5-18.5T46-38Zm94,368q26,23 50,55t44.5,66.5t36,67T295,577t10,40q0,1 0,1.5t0,1.5q-6,0-25.5-24.5t-45-66t-51-93.5T140,330Z" />
      <glyph unicode="i" glyph-name="gid36" horiz-adv-x="244" d="M80-30Q36-30 14-4T-8,59q0,23 8,58t22.5,73.5T56,263t41,55.5T141,340q12,0 21-7t9-22q0-13-15.5-39t-36-60t-36-70.5T68,72q0-32 11.5-42.5T113,19q34,0 74,34t83,119l15-16Q250,68 196,19T80-30ZM198,421q-19,0-34.5,9.5T148,460q0,24 26,41t54,17q18,0 30.5-8T271,481t-23-40.5T198,421Z" />
      <glyph unicode="j" glyph-name="gid37" horiz-adv-x="227" d="M-134-280q-29,0-46,16.5T-197-221q0,39 36,80t92,75q17,9 34,17.5T0-33Q17,8 31.5,59T57,170q-8-14-17.5-28T22,113L5,140q18,34 32,70.5t27,68T91,330t33,20q14,0 22.5-10.5T155,313q0-11-5-40.5T136,200t-22.5-93T83,6q29,16 56.5,35t55,48.5T250,166l18-12q-31-64-66-99T132.5,0.5T67-39Q45-99 14.5-154.5t-68-90.5T-134-280Zm-11,48q18,0 52,37T-23-85q-67-34-100.5-68.5T-157-215q0-10 3.5-13.5t8.5-3.5ZM139,424q-19,0-34.5,9.5T89,462q0,17 13,30.5T134,514t37,8q17,0 29-8.5T212,487q0-25-22-44t-51-19Z" />
      <glyph unicode="k" glyph-name="gid38" horiz-adv-x="462" d="M317-38q-31,0-54,20T226,32T205,93.5T198,148q14,3 35,9t43,16.5t36.5,26T327,237q0,18-11.5,29T283,277q-28,0-53-18.5T183.5,210t-39-65t-31-68T91,20Q80-10 70-20.5T41-31q-7,0-16.5,4T8.5-7T2,44q0,61 17,134T64.5,326.5T127,471t69,124t65.5,87T312,714q17,0 28.5-20.5T352,641q0-34-15-75.5t-42.5-84T229,401t-84-65q-28-65-43-128.5T83,95q18,41 41,84t51,80.5T235.5,320T305,343q40,0 70-28t30-70q0-30-16-52t-39.5-36.5T302,135t-41-8q3-13 8.5-33T284,55t23-32t33-13q25,0 51.5,23t52,61T489,178l14-17q-17-50-46.5-96T391-9.5T317-38ZM174,404q27,24 57,59.5t51.5,76T305,617q0,1 0,1.5t0,1.5q-10-4-31.5-34.5T226,508T174,404Z" />
      <glyph unicode="l" glyph-name="gid39" horiz-adv-x="245" d="M86-30Q39-30 20.5,1.5T2,76q0,49 18,115T67.5,329.5t65,142T204,597t66.5,89.5T320,720q13,0 22-13.5t14.5-32T362,640q0-27-13.5-70.5t-38-95.5t-58-106.5T178.5,264T92,179q-4-25-7.5-49.5T81,85q0-36 12-52.5T124,16q25,0 51.5,23.5t51,60T269,175l24-13Q250,73 197,21.5T86-30Zm24,271q34,37 64.5,80.5t56,88.5T275,497t29.5,75.5T316,626q0,1 0,1.5t0,1.5q-8,0-25.5-22.5T249,545t-49.5-89t-49-105.5T110,241Z" />
      <glyph unicode="m" glyph-name="gid40" horiz-adv-x="660" d="M523-31q-39,0-58,23T446,47q0,23 7,46t14,45.5t7,40.5q0,17-6.5,23.5T451,209q-23,0-53.5-35T322,72q-16-24-30-50.5T267-23q-9,0-23.5,3T218-11.5T207,3t10,35t23,60.5t23,68T273,223q0,14-5,22t-16,8q-21,0-50.5-25t-62-65.5t-61-90T32-27Q21-27 5-22.5t-28,11T-35,0q0,1 7,28.5T-11,97t21,84t19,75q3,11 22,19.5T84,284t24-9t10-24q0-10-4-29t-10-43q21,28 44.5,55.5t49,49.5t51,35T299,332q37,0 50-26.5T362,248q0-13-2-25.5t-5.5-25T345,168q19,28 41.5,51.5T435,257t55,14q39,0 54-23.5T559,196q0-26-8.5-54.5t-17-54T525,44q0-10 5-18.5T550,17q27,0 52,25t46.5,61.5T685,173l17-21q-16-41-41.5-83.5T601-2.5T523-31Z" />
      <glyph unicode="n" glyph-name="gid41" horiz-adv-x="473" d="M337-20q-39,0-59.5,19.5T257,49q0,20 7,42.5T278,137t7,44q0,22-10.5,30.5T250,220q-30,0-61.5-24.5t-61-61.5T72,57T27-15Q8-15-9-8.5T-38,14q1,5 11.5,30.5t23.5,61T20,180t10,71q7,8 21.5,16T82,275q35,0 35-30q0-12-4.5-35.5T100,156q26,35 57,66t64.5,50.5T289,292q43,0 63.5-29T373,199q0-30-10-56T343.5,94T334,49q0-16 7.5-22.5T358,20q24,0 50,23t49.5,58.5T499,173l17-14q-21-49-47.5-89.5t-59-65T337-20Z" />
      <glyph unicode="o" glyph-name="gid42" horiz-adv-x="372" d="M66-32Q21-32 4.5-2.5T-12,62q0,32 10,65.5T25.5,190t39,46.5T108,254q7,0 16.5-2.5T138,244q-12-15-24.5-37t-23-46.5T74,111T68,65q0-20 7.5-33T102,19t45.5,21.5T198,90q-32,29-46,63.5T138,237q0,21 10.5,48t34,47T246,352q43,0 60.5-24T324,271q0-37-19.5-83T258,101q12-6 28-6q15,0 36,7t41,23.5T395,170l18-13q-22-51-58.5-74.5T283,59q-13,0-26,2.5T233,68Q199,28 155-2T66-32ZM224,122q24,35 41,75t17,74q0,23-7,33.5T254,315q-19,0-39-27t-20-68q0-21 7.5-51T224,122Z" />
      <glyph unicode="p" glyph-name="gid43" horiz-adv-x="413" d="M-56-280q-8,0-17,4.5T-88.5-265T-96-255q25,73 42.5,126.5T-24-27.5t21.5,99t19,118T38,350q2,12 5,17.5T62,373q31,0 45-16.5T121,320q0-10-3.5-35T107,226q19,29 43.5,55T205,323.5T270,340q49,0 81-33t32-87q0-39-17.5-82.5T316,55.5t-77-63T140-32q-32,0-51,8T70-6q0,7 7.5,8.5T94,4q47,1 85.5,20T246,73.5T289,139t15,69q0,30-13.5,52T248,282q-25,0-50.5-16T150,225.5t-39-51T85,128Q66,62 50.5-3.5T21-125T-7.5-220T-39-273q-8-7-17-7Z" />
      <glyph unicode="q" glyph-name="gid44" horiz-adv-x="417" d="M216-280q-16,0-29.5,16.5T173-201q0,31 5.5,78t16,100T218,77Q178,28 141-4T69-36q-17,0-36.5,9.5T-0.5,3T-14,56q0,35 16.5,76t45,81T113,285.5t79,52T277,357q38,0 64-15.5T367,301q0-8-3.5-18.5T351,267t-25,1q0,21-15,34t-40,13q-34,0-64.5-18.5T151,249t-43.5-62.5T79,122T69,69q0-18 8.5-31T102,25q19,0 41.5,19T190,93.5T238.5,160T287,230q9,13 15,20t13,14q5,5 21.5,1t21.5-9q8-8 8-19q0-21-16-46.5t-36.5-64T279,29q41,5 83.5,38T442,169l18-16Q423,79 375.5,43T279-1q8-24 12.5-51t4.5-54q0-49-10-88.5T258-257t-42-23Zm21,65q6,0 9.5,17.5t5,44.5t1.5,53q0,17-0.5,27T250-53q-8-40-12.5-74.5T233-194q0-13 1-17t3-4Z" />
      <glyph unicode="r" glyph-name="gid45" horiz-adv-x="363" d="M185-26q-37,0-60,19.5T102,46q0,28 14,60t28.5,63T159,224q0,23-15,38.5T109,288Q87,233 59.5,181.5T15,101L0,130q14,26 37,74T81,311q-10,10-10,27q0,26 16,49t31,23q12,0 17.5-13.5T141,378t-4.5-18T130,341q1-11 17.5-21.5T185,295t37-35t16-53q0-29-13-59T199,92T186,47q0-14 7.5-18.5T211,24q24,0 50,14.5T312,76t44,48.5T385,171l24-18q-19-43-55-84.5t-80-68T185-26Z" />
      <glyph unicode="s" glyph-name="gid46" horiz-adv-x="351" d="M117-51Q67-51 36.5-30.5T-7,21.5T-20,86q0,29 8,45T8,154.5T30.5,166T46,175q25,26 51.5,60.5T143,312v10q0,40 13.5,56.5T188,395q12,0 17.5-6t6.5-14q0-6-2.5-14T207,339q0-30 14.5-68.5t29-81.5T265,101q0-12-1-22t-3-19q31,8 61,34.5T379,173l12-9q-19-57-55-91.5T252,30q-16-41-52.5-61T117-51ZM110-7q20,0 37,10t27,29q-41,9-74,32T49,111q-14-3-14-27q0-33 19-62T110-7Zm72,69q2,7 2.5,16.5T185,93q-1,45-12,89t-22,90q-18-31-42-67T64,147q16-27 47-51t71-34Z" />
      <glyph unicode="t" glyph-name="gid47" horiz-adv-x="288" d="M91-46Q47-46 20-20T-7,59q0,41 15.5,102T48,287q-7,2-16.5,3.5T13,296v31q16-2 26.5-3T61,322q21,53 45.5,102.5t49,88.5T202,574.5T241,597q10,0 19-7.5t9-21.5q0-20-20.5-57T198,424.5T140,319q8,0 16,0t15,0q44,0 79.5,1.5T323,326V293q-55-5-101-8t-88-4q-3,0-6,0t-6,0q-21-49-36.5-100.5T70,80q0-41 13-58T124,5q50,0 102.5,45.5T318,174l14-10q-26-59-64.5-107T184-18.5T91-46Z" />
      <glyph unicode="u" glyph-name="gid48" horiz-adv-x="441" d="M76-30Q42-30 20.5,1.5T-1,74q0,28 9,66t23.5,74t30,60T90,298q7,0 21.5-7.5T137,272q-11-16-26.5-49T83,152T71,83q0-4 1.5-19T80,36t21-13q17,0 36.5,18.5t40,48t40,63.5t35,66T278,273q9-1 23.5-5T327,257.5T338,239q0-3-9.5-24.5t-22-51.5t-22-61.5T275,46q0-14 5.5-24.5T302,11q21,0 50,19t60,55t55,86l15-12q-22-54-57-97T350-5.5T272-30q-29,0-43.5,13.5T209,18.5T203,62q0,5 0,10.5t0,9.5q-17-27-37-52.5T123.5-13T76-30Z" />
      <glyph unicode="v" glyph-name="gid49" horiz-adv-x="410" d="M74-39Q37-39 22.5-5.5T8,81q0,11 1,39.5T12,200q1,30 6.5,41T50,252q24,0 28.5-9.5T83,204q0-30-2.5-64T78,74q0-31 3-45.5T96,14q18,0 39,19.5t42.5,50t41,66T253,218q2,68 16,91t36,23q25,0 34-16t9-28q0-15-8-27t-16-33t-8-64q0-14 2.5-30.5t12-28T359,94q20,0 38.5,16.5T437,168l11-9q-23-55-51.5-77T342,60q-33,0-53.5,26.5T257,153q-24-45-54.5-89T139-9.5T74-39Z" />
      <glyph unicode="w" glyph-name="gid50" horiz-adv-x="631" d="M291-38q-34,0-45.5,29.5T232,62q1,12 1.5,33t1.5,35q-21-38-46-75T136-6T77-30Q43-30 21,0.5T-1,74q0,29 9.5,67t24,74t30,60T90,299q7,0 24.5-8T136,270q-11-16-26.5-49t-27-70.5T71,82q0-6 1.5-20.5T81,35t21-12q22,0 46.5,27T198,118t47,84q9,43 15,62t12.5,24t15.5,5q19,0 29.5-7.5T328,264q0-1-2-8.5t-3-9.5q-6-21-11-50.5t-8-63T301,65q0-24 3-37.5T319,14q14,0 32.5,17t39,45t40,61.5T466,205q0,52 7.5,79t20,37.5T521,332q25,0 34.5-16t9.5-27q0-10-5-18.5T552,255q-7-15-13.5-36T532,166q0-17 3.5-34.5t13-28.5T576,92t36.5,16T653,168l19-15q-22-52-50-71.5T568,62q-33,0-56,24t-36,59q-25-43-55.5-85.5T357-10.5T291-38Z" />
      <glyph unicode="x" glyph-name="gid51" horiz-adv-x="430" d="M55-59q-9,0-13.5,7T37-39Q37-25 58,5.5T113,76t73,82q-7,49-15,75t-30,26t-41-22.5T63,181T25,116L8,144q14,25 26.5,53.5t28,54.5T101,294.5T159,311q40,0 60.5-23T251,226q45,45 82,75.5T384,332q6,0 17-6t16-20q-13,0-37.5-17.5t-56-47T259,175q3-14 5.5-39T272,84.5T287.5,40T316,22q17,0 37,15t39.5,38.5t36,49T455,171l16-15q-17-45-46.5-87T359,0T285-27q-31,0-49,18.5T208.5,38T194,96q-40-45-72.5-84.5T72-50q-7-9-17-9Z" />
      <glyph unicode="y" glyph-name="gid52" horiz-adv-x="400" d="M48-280q-25,0-46.5,15.5T-20-215q0,32 19,57.5t49,47t64.5,39T179-39q11,29 24.5,73.5T227,117q-31-43-66-76T83,8Q65,8 45,15.5t-33.5,26T-2,91q0,26 9.5,63t24,72.5t30.5,59T90,309q6,0 17.5-4.5t22.5-12T144,276q-9-12-20-34.5t-21-50T86.5,138T80,93q0-15 6-26t23-11q22,0 45.5,18t46,46T241,177q2,7 4,22t7,31q5,17 17.5,31T305,275q8,0 15-1t17-3q0-15-10.5-58.5T299,112T261-2q42,17 87.5,56.5T422,167l17-14q-15-50-45.5-87T325,3T248-40q-27-65-58.5-120T123-247.5T48-280ZM38-243q19,0 53,40T160-83q-32-16-64.5-37.5T41-166T19-215q0-10 4.5-19T38-243Z" />
      <glyph unicode="z" glyph-name="gid53" horiz-adv-x="331" d="M8-280q-35,0-55.5,13.5T-68-222q0,34 21.5,61t58,51t81,49T182-6q-1,32-19.5,61T98,117q39,11 66,34.5t41,52T219,257q0,18-9,32.5T178,304q-30,0-56-26T72.5,211T27,123L8,139q22,59 46.5,107.5t58,77.5T193,353q41,0 70-23t29-67q0-31-15.5-60.5t-41-54T179,108q22-17 38.5-39T244,26q36,28 65,62t46,78l13-16q-15-44-44.5-82.5T254,0q2-7 3-14.5T258-33q0-44-20-87.5T182.5-200t-80-58T8-280ZM-6-242q18,0 46.5,13.5t58,39t52,61.5T180-46q-37-24-75-45T36-132.5T-14-173t-19-42q0-14 8-20.5T-6-242Z" />
      <glyph unicode="{" glyph-name="gid87" horiz-adv-x="304" d="M140-87Q96-87 79-65T62-15q0,27 11,57.5T98.5,106T124,172t11,65q0,23-10,49.5T83,337q42,4 62.5,31t28,68T185,522q3,37 7,72t14,63.5T236,703t55,17q12,0 28-5.5t25.5-20T345,652q-18,10-26,12.5T306,667q-19,0-29.5-22.5t-16-58T250,511q-5-45-11.5-85T220,358t-36-37q11-13 16-28t5-40q0-42-11-80t-25.5-72T143,36.5T132-23q0-13 9-19.5T162-49q17,0 32,10q-2-31-19-39.5T140-87Z" />
      <glyph unicode="|" glyph-name="gid219" horiz-adv-x="294" d="M78-132q13,35 23,92T119,86.5t14,145t11,149T154,518t10,111t12,69q19-7 27-23t10.5-34t2.5-31q0-39-1.5-96t-4-122t-5-129.5t-6-118.5T193,55q-7-85-34.5-136T78-132Z" />
      <glyph unicode="}" glyph-name="gid88" horiz-adv-x="301" d="M70-87q-13,0-28.5,6.5T15-58T6-14Q33-32 49-32Q68-32 79-7.5T96.5,55T107,134q5,44 12,87t21,77t40,51q-13,15-18,32.5T157,417q0,32 10.5,67.5t24,69.5t24,62T226,659q0,13-7,17t-15,4q-7,0-15-3t-16-8q-4,20 11.5,40T239,729q28,0 45-11t17-36q0-21-11-48.5t-25-60T240,505t-11-72q0-25 9.5-51.5T279,336q-41-10-62.5-40T187,224t-12-88q-3-41-6.5-81T156-17T127-68T70-87Z" />
      <glyph unicode="~" glyph-name="gid208" horiz-adv-x="477" d="M301,123q-23,0-58,11t-70,21.5T113,166q-8,0-23-1.5T59,159q16,18 38,33.5T145,208q17,0 41.5-6t52-13.5t53-13.5t43.5-6q8,0 20,2t39,6q-31-31-52.5-42.5T301,123Z" />
      <glyph unicode="&#xa0;" glyph-name="gid191" horiz-adv-x="260" />
      <glyph unicode="&#xa1;" glyph-name="gid65" horiz-adv-x="297" d="M-32-249q-10,0-19,8.5T-60-219q0,14 16.5,55T0-66T60,55t66,125.5t62,111T236,367q3-1 6-2t6-2q0-25-9-58.5T217.5,237T194,174q-22-57-46-117T100-57.5t-47-98T8.5-224T-32-249ZM244,400q-15,0-24.5,7T210,431t18.5,33.5T269,481q16,0 28-8t12-26q0-19-20.5-33T244,400Z" />
      <glyph unicode="&#xa2;" glyph-name="gid193" horiz-adv-x="426" d="M75-162q16,17 33.5,57t35,95.5T177,110q-50,2-83.5,35.5T60,241q0,45 17.5,87.5t47,78.5T191,468.5T266,505q9,47 16.5,90.5T294,670q2,14 12,29t49,23L317,512q39,0 61-21.5T400,429q0-25-11-48t-34-23q-18,0-33,19q9,5 16,22.5t7,35.5q0,14-9.5,24.5T309,470q-14-78-28.5-156T252,166q30,6 60,20.5T369,224l22-24q-34-31-71.5-52.5T243,117Q224,31 204-32t-49.5-96.5T75-162ZM190,162q19,74 34.5,145T255,449q-34-22-60.5-58.5T153,313t-15-77q0-25 11.5-46.5T190,162Z" />
      <glyph unicode="&#xa3;" glyph-name="gid197" horiz-adv-x="691" d="M491-87q-37,0-83,15T313.5-36T219,4q-25-27-54-42T103-53Q68-53 42.5-37.5T3.5,0T-10,40q0,20 18,35T72,90q27,0 59.5-5.5T198,70q36,74 65,158.5T317,394q-48,16-76,45.5T213,502q0,20 9.5,40T251,575.5T296,589q-11-15-15-33t-4-32q0-33 14-57t38-38q26,78 56.5,144t71,106.5T550,720q22,0 47.5-9t44-32.5T660,612q0-34-15-74t-46.5-76t-82-59T395,380q-26-78-47.5-136.5T305,139T258,54q44-13 91.5-26.5T442,5t80-9q25,0 45.5,5.5T611,18q-20-56-49.5-80.5T491-87ZM89-18q21,0 42,13t36,29q-31,11-58.5,18.5T61,50q-16,0-28-5T21,31q0-7 9.5-19t25-21T89-18Zm34,230q7,21 36.5,36.5t74,23.5t96.5,8q55,0 107.5-5.5T533,265q-17-22-42-31.5t-69.5-11T303,221q-68,0-112.5-2T123,212ZM406,413q44,3 78,28t58,60t36.5,71.5T591,636q0,26-10,35.5T558,681q-29,0-55-37t-49.5-97.5T406,413Z" />
      <glyph unicode="&#xa4;" glyph-name="gid194" horiz-adv-x="735" d="M647,20q-24,37-62.5,69T497,167q-26-31-58.5-50T369,98q-28,0-50,10t-37,27q-47-49-96.5-68.5T90,47q30,28 55,44.5t50.5,37T250,189q-4,15-7,31t-3,33q0,41 10.5,85.5T283,425q-34,35-66,63.5T161,537q-9,8-15,27t-7,38q0,9 2.5,20.5T149,646q14-13 61-58.5T317,480q26,32 59.5,52T449,552q37,0 66-16.5T561,490q24,30 42.5,56.5t43,43T713,606q5,0 13.5-1t17.5-3q-14-22-54.5-66.5T582,416q1-7 1.5-13.5T584,390q0-41-14-84.5T533,220q51-44 85-87t35-80q0-5-0.5-11.5T647,20ZM376,165q25,0 49.5,23.5t45,61.5T503,330.5T515,410q0,35-19.5,57T453,489q-30,0-56-26t-45-65t-29.5-80.5T312,245q0-36 21.5-58T376,165Z" />
      <glyph unicode="&#xa5;" glyph-name="gid198" horiz-adv-x="868" d="M382-187q-41,0-76,11.5T250-142T229-87q0,29 19,50.5T306-2q-4-14-7-34t-3-34q0-34 23-56t65-22q39,0 68,18t51,46t37,58q-35,0-73.5-2.5T383-38q14,36 63,49.5T561,26q4,12 8,23.5T577,73q-44-1-92-3T381,60q10,27 39.5,40.5t73.5,19t96,5.5q7,29 14,77t17,96q-25-42-56-76.5T496.5,166T413,145q-64,0-93.5,35T290,272q0,38 9.5,82T322,443.5t22.5,87T354,605q0,29-11.5,52.5T299,681q-27,0-46.5-16t-32-41T202,571.5T196,521q0-33 13-62q-49,0-69.5,22T119,536q0,31 15.5,63t43,59.5t64,44.5T321,720q42,0 68-16t38-40.5T439,612t-9.5-65T407,465.5t-22.5-88T375,294q0-43 16-69t53-26q35,0 66.5,22t58,57.5T617,356t38,83q17,73 37,137t42.5,104T781,720q12,0 31.5-10.5T848,682q-27-43-47.5-88.5T765,501t-27.5-95T714,309t-24-98q-5-22-11.5-44T665,122q35-1 69-4t50-4q-37-25-71.5-33T652,73q-4-12-8-24t-9-24q38-1 73-3.5T786,16q-37-26-70.5-34T659-26H613q-22-46-53.5-82.5t-75-57.5T382-187Z" />
      <glyph unicode="&#xa6;" glyph-name="gid220" horiz-adv-x="295" d="M79-132q13,34 22.5,85.5T118,68t13,131q9,11 23.5,18.5T185,225q11,0 15-10.5t4-19.5q0-102-10-175T157-92.5T79-132Zm58,414q7,92 13,176t12.5,147.5T177,699q19-7 27-21t10.5-28t2.5-23q0-38-3-106t-3-141q0-10-6-32.5T177,310l-40-28Z" />
      <glyph unicode="&#xa7;" glyph-name="gid214" horiz-adv-x="443" d="M168-87q-37,0-71,13.5t-55.5,40T20,33q0,36 17,55.5T78.5,116t48.5,8q-22-22-34-46.5T81,32q0-31 25.5-55.5T181-48q29,0 55,9.5T278.5-10T295,35q0,31-21.5,53t-53,41.5t-63,41t-53,50.5T83,291q0,36 18.5,68.5T157,413t93,22q-22,13-42.5,28t-33,35T162,545t13.5,57T214,659t60,43.5T352,719q45,0 62.5-19T432,649q0-24-8-51t-19.5-51.5T381,504q-19,3-25.5,13T349,539q0,19 9,43t18,48t9,40q0,10-6,15t-24,5q-40,0-71.5-22T234,615.5T216,560q0-27 19.5-44.5t48-33t57-35t48-49.5T408,320q0-45-19-74.5T337,201t-76-15q-5,0-9.5,0t-7.5,1q18-10 37-22t35.5-28T343,101t10-46q0-44-28-76T254.5-70T168-87Zm74,319q46,0 70.5,22T337,314q0,33-20.5,57.5T250,396q-40,0-71-21t-31-60q0-12 6-32t26.5-35.5T242,232Z" />
      <glyph unicode="&#xa8;" glyph-name="gid243" horiz-adv-x="230" d="M183,411q-16,0-29,8.5T141,445q0,20 22.5,34T208,493q15,0 26-7t11-26q0-17-19.5-33T183,411ZM39,431q-16,0-29.5,8T-4,465q0,19 22.5,33.5T63,513q16,0 26-7t10-25q0-17-18.5-33.5T39,431Z" />
      <glyph unicode="&#xa9;" glyph-name="gid215" horiz-adv-x="620" d="M344,100q-45,0-89.5,16t-82,48t-60,80.5T88,358q0,67 23,116.5T172,556t83.5,48T346,620t91.5-16T523,556t63-80.5T610,362q0-67-24-116.5T522,164t-86.5-48T344,100Zm0,42q65,0 115.5,27.5t80,77.5T569,362q0,63-28.5,111.5T462,550T347,578q-63,0-112.5-27.5t-77.5-76T129,362q0-63 26.5-113t75-78.5T344,142Zm9,64q-38,0-66,21.5T259,300V429q0,52 24.5,73.5T347,524q34,0 54.5-14T431,478.5t9-30.5q0-16-7.5-20T418,424q-10,0-15,5t-7,12q-3,9-6,18.5T378.5,476T349,483q-24,0-35-13t-11-41V300q0-28 10.5-41T354,246q20,0 28.5,7T394,270t6,19q2,7 5.5,11.5T418,305q24,0 24-21q0-32-23.5-55T353,206Z" />
      <glyph unicode="&#xaa;" glyph-name="gid169" horiz-adv-x="410" d="M182,447q-22,0-39.5,16T125,511q0,30 16.5,66t45,68.5T250,699t71,21q31,0 52-14.5T394,667q0-16-16-25.5T345,634q2,7 3.5,13.5T350,659q0,11-7,20t-23,9q-23,0-46.5-18.5t-43-47T199,564t-12-54q0-20 13-20q15,0 34,16t39.5,40t38,48T340,634q19-6 29.5-11.5T380,610q0-10-10-25.5T350.5,552T341,520q0-7 4-15t14-8q17,0 46,26t61,80l10-16q-22-58-61-93t-76-35q-23,0-32.5,12.5T294,500q-1,5-1.5,11T292,522q-29-34-56.5-54.5T182,447Z" />
      <glyph unicode="&#xab;" glyph-name="gid187" horiz-adv-x="480" d="M353,44q-19,0-46.5,12.5T252,88.5t-47,40T180,165q37,15 73.5,39.5t69,54.5T378,319q2-2 7-14.5t5-17.5q0-20-15-39.5T336,210t-52-34t-54-29q20-13 40-24t48.5-23.5T394,70q-8-9-19-17.5T353,44ZM200,44q-19,0-46.5,12.5T99,88.5t-47,40T27,165q37,15 73.5,39.5t69,54.5T225,319q2-2 7-14.5t5-17.5q0-20-15-39.5T183,210t-52-34T77,147q20-13 40-24t48.5-23.5T241,70q-8-9-19-17.5T200,44Z" />
      <glyph unicode="&#xac;" glyph-name="gid209" horiz-adv-x="676" d="M495,26q5,24 8,49t4.5,52.5T509,186q-11-1-23-1t-20,0q-68-1-116-1.5t-85-1t-69-2T128,177t-84-7q16,28 60.5,42T215,231t143,5q41,0 80-0.5t73-2.5q4,13 12.5,26.5T549,289q0-13 2.5-26t5.5-32q23-1 44-1t33-3q-17-18-36-25t-38-11q0-20-0.5-45T554,96.5T535.5,53T495,26Z" />
      <glyph unicode="&#xad;" glyph-name="gid186" horiz-adv-x="485" d="M43,142q7,22 28,35t47,19t49,7.5t35,1.5q13,0 43-1t65-2t65-2t43-2q-10-23-45.5-38.5T296,144q-21,0-54,3t-71,3q-25,0-52-1.5T71.5,145T43,142Z" />
      <glyph unicode="&#xae;" glyph-name="gid216" horiz-adv-x="619" d="M342,100q-45,0-90,16t-82,48t-59.5,80.5T88,358q0,67 24,116.5T174.5,556T259,604t91,16t91-16t84.5-48T587,475.5T610,362q0-67-24.5-116.5T521,164t-87-48t-92-16Zm0,42q64,0 115.5,28T539,247.5T569,363q0,62-27,110.5T466,550T352,578q-63,0-113.5-27t-80-76T129,359q0-61 26-110.5t73.5-78T342,142Zm-52,65q-8,0-15.5,5.5T267,228l-4,275q0,8 5.5,14t15.5,6h65q24,0 47-8t37.5-27T448,434t-16-56t-42-28q13-25 25.5-49.5t22-41.5T449,238q1-1 2-4.5t1-6.5q0-7-7.5-13.5T429,207q-10,0-17.5,11T399,238L344,346H312V228q0-10-7-15.5T290,207Zm20,179h42q23,0 37,11.5T403,434q0,27-15.5,38T351,483H310V386Z" />
      <glyph unicode="&#xaf;" glyph-name="gid245" horiz-adv-x="413" d="M312,421q-23,0-56.5,5.5t-70,13.5T116,455.5T60,466q11,30 50,30q36,0 78.5-7.5t86-18.5T353,446q-12-25-41-25Z" />
      <glyph unicode="&#xb0;" glyph-name="gid218" horiz-adv-x="293" d="M191,396q-41,0-60,16.5T112,453q0,23 16,48.5t44.5,43T236,562q44,0 63-17t19-40t-17-48.5t-45.5-43T191,396Zm4,32q19,0 37,12.5T262,471t12,34q0,11-9,17.5T236,529t-38-12.5T169,487t-11-33q0-10 8.5-18t28.5-8Z" />
      <glyph unicode="&#xb1;" glyph-name="gid207" horiz-adv-x="485" d="M197,106q6,34 8.5,68.5T208,242q-26,0-48-0.5t-46-2T58,233q11,29 52.5,40.5T208,287v31q0,19 6,41.5T242,411q4-20 8-54.5t6-69.5q31,0 64-2t60-4t40-3q-37-22-67.5-29T301,242H256q-1-49-11-85.5T197,106ZM56,23q4,25 32.5,37T159,76t85,4q51,0 101.5-3T424,71q-28-15-51-22t-52-9t-76-3q-33-1-55.5-2t-41-2t-40-3.5T56,23Z" />
      <glyph unicode="&#xb2;" glyph-name="gid172" horiz-adv-x="398" d="M319,301q-16,0-38,5.5t-44.5,14T198,337q-34-20-59-20q-19,0-33,10T92,353q0,32 48,32q12,0 24.5-1.5T192,379q30,26 59,66.5t48,86T318,618q0,34-13,48.5T272,681q-27,0-42.5-24.5T214,595q0-10 2.5-19t9.5-26H207q-22,5-34.5,16.5T160,602q0,29 15,54t42,40.5T280,712q42,0 69-28t27-69q0-43-18-88t-48.5-86T243,369q26-5 48.5-9.5T331,355q8,0 20,5.5T387,380q-10-40-26-59.5T319,301ZM137,349q4,0 7,1t7,3q-4,1-8,1t-6,0q-5,0-6.5-0.5T129,352t2.5-2t5.5-1Z" />
      <glyph unicode="&#xb3;" glyph-name="gid173" horiz-adv-x="335" d="M199,314q-51,0-73.5,26T103,392q0,20 13,40t39,20q3,0 8.5-1t21.5-6q-12-9-18.5-22T160,399q0-19 10.5-37.5T203,343q26,0 48,28t22,68q0,28-16,54t-62,37q32,14 54,34.5T283,608t12,41q0,21-11,32.5T259,693q-19,0-33-15t-14-36q0-7 3-14t7-16q-5-9-14.5-16T190,589q-13,0-21,16.5T161,636q0,39 32.5,60.5T265,718q34,0 62-18t28-53q0-19-8.5-40.5t-24-40T286,537q33-16 46.5-43T346,444q0-32-18.5-62T276,333t-77-19Z" />
      <glyph unicode="&#xb4;" glyph-name="gid240" horiz-adv-x="141" d="M117,404q-13,5-18.5,16.5T93,437q0,8 10,26.5t26,39t33.5,35T196,552q11,0 19.5-7.5T226,517q-35-34-61.5-59.5T117,404Z" />
      <glyph unicode="&#xb5;" glyph-name="gid210" horiz-adv-x="616" d="M11-280Q0-280-9-269.5t-14,22T-29-234q14,49 28.5,86.5T29-70.5T58,22T85.5,154T111,350q2,12 5.5,17.5T137,373q30,0 43-16t14-36q-21-97-33-161.5T149,60q0-42 25-42q19,0 39,19.5T253,88t39,66t35,67t28,53q7-1 21-4.5T402,259t12-18q0,0-9.5-21T382,167.5T359.5,102T350,42q0-15 6-24.5T378,8q21,0 51,19t61,55t56,87l24-16q-22-55-58-98T435.5-12T357-36q-37,0-59,22.5T276,44q0,4 0,8t1,8Q251,19 221-8.5T155-36q-10,0-22.5,5.5T113-18Q77-145 52.5-212.5T11-280Z" />
      <glyph unicode="&#xb6;" glyph-name="gid213" horiz-adv-x="686" d="M358-87q3,53 7.5,114T375,152q-26,2-64.5,7t-80,16.5t-78,32t-59,52T71,336q0,56 28.5,99T175,509t103.5,49T390,581q-3,66-12,125q12,6 21,8t16,2q17,0 26.5-13.5t13.5-34t5-43.5t1-42q8-1 22-2.5t21-4.5q-2,39-4.5,73T494,705q10,7 18.5,9t15.5,2q14,0 23.5-22t15-57.5T575,559q26-7 48.5-16.5T665,525q-3-7-13.5-15.5t-21.5-15T614,488q-6,0-13.5,4.5T577,504q3-35 4-68t1-65q0-185-3-288T571-34q-7-25-32-39T486-87q1,3 3.5,35.5T495,34t6,117.5T505.5,285T507,419t-3,116q-7,2-19,4t-20,3q3-52 4.5-89.5t2.5-70t1-70.5q0-60-1-119.5T469,84T465.5,3.5T462-33q-5-15-22.5-27.5T400-80t-42-7Z" />
      <glyph unicode="&#xb7;" glyph-name="gid73" horiz-adv-x="241" d="M99,115q-24,0-32.5,12T58,152q0,11 10.5,22.5t25.5,19t28,7.5q11,0 22-5.5T155,172q0-8-7-21.5T128.5,126T99,115Z" />
      <glyph unicode="&#xb8;" glyph-name="gid241" horiz-adv-x="232" d="M79-233q-30,0-48,13.5T13-192q0,9 8,20.5T45-149q8-25 18.5-35T85-194q17,0 35.5,14.5t32,34T166-111q0,8-4.5,12T150-95q-12,0-27-9T94-122.5T71-132t-15,9t-6,16q0,2 9,15T82-60.5T110-25T134,0h16L103-75q8,3 23,7.5T157-63q23,0 38.5-12.5T211-113q0-27-18.5-54.5T144-214T79-233Z" />
      <glyph unicode="&#xb9;" glyph-name="gid171" horiz-adv-x="308" d="M146,314q-11,0-28,9.5T87,352q30,0 45.5,0.5T169,355q10,24 18.5,61T203,493t13,74.5T227,620q-19-10-28-14t-14-4q-10,0-16,6.5T163,632q9,5 28.5,18T236,681t48,36h4q2-1 2.5-2.5T292,711q2-4 2-9.5t0-7.5q0-8-5.5-36.5t-14.5-72T254,487l-12-60q-4-21-9-37.5T222,361q23,0 39.5-9T284,315q-10,1-26,2t-26,1q-28,0-46.5-2T146,314Z" />
      <glyph unicode="&#xba;" glyph-name="gid170" horiz-adv-x="310" d="M191,452q-29,0-46.5,18T127,517q0,27 14,61t38.5,66.5t56,53.5T301,719q13,0 21-3.5t13-9.5q17-1 25-12t8-20q0-10-6.5-24T348,621.5T341,594q0-7 4.5-9.5T357,582q9,0 14,1t10,3q0-18-12-26.5T342,551q-14,0-25,8q-22-47-55-77t-71-30Zm17,40q15,0 31.5,14T272,542.5T298,589q-2,9-3,16t-1,21q0,21 1.5,32.5T300,677q-25-4-46.5-22t-37-42.5T192,564t-9-40q0-14 7-23t18-9Z" />
      <glyph unicode="&#xbb;" glyph-name="gid188" horiz-adv-x="492" d="M261,44q-11,0-22,8.5T220,70q47,17 76,29.5T344.5,123T384,147q-26,13-54,29t-52,34t-39,37.5T224,287q0,5 5,17.5t7,14.5q23-30 55.5-60T361,204.5T434,165q-5-16-25-36.5t-47-40t-54.5-32T261,44ZM108,44q-11,0-22,8.5T67,70q47,17 76,29.5T191.5,123T231,147q-26,13-54,29t-52,34T86,247.5T71,287q0,5 5,17.5T83,319q23-30 55.5-60T208,204.5T281,165q-5-16-25-36.5t-47-40t-54.5-32T108,44Z" />
      <glyph unicode="&#xbc;" glyph-name="gid176" horiz-adv-x="686" d="M52-87q25,24 62.5,76.5T196,112t89.5,148.5T373,416t74.5,143.5T497,671q4,11 20.5,21t38,15.5T596,710q-5-14-25.5-55T520,556.5t-65.5-123t-71-130T317,185T264,97Q211,15 160-36T52-87ZM560-27q-31,2-47,10.5T497,8q0,7 4,34t17,89q-8,1-16.5,1T485,132q-29,0-58-3t-50-8q0,16 4,25t8,13q32,27 73.5,63.5t81,78.5T607,383q20-2 21-21q0-9-12.5-50T585,174h10q8,0 21,2.5t32,5.5q-17-23-37-37.5T577,130q-1-11-4-31t-6-43t-5-45.5T560-27ZM459,177q12,0 29.5-0.5T529,176q5,24 7,37t4.5,22.5T547,258l-28-25q-17-15-26.5-23.5t-16.5-15T459,177ZM140,314q-11,0-28,9.5T81,352q30,0 45.5,0.5T163,355q10,24 18.5,61T197,493t13,74.5T221,620q-19-10-28-14t-14-4q-10,0-16,6.5T157,632q9,5 28.5,18t44,31T278,717h4q2-1 2.5-2.5T286,711q2-4 2-9.5t0-7.5q0-12-13-76T236,427q-4-21-9-37.5T216,361q23,0 39.5-9T278,315q-10,1-26,2t-26,1q-28,0-46.5-2T140,314Z" />
      <glyph unicode="&#xbd;" glyph-name="gid175" horiz-adv-x="743" d="M60-87q25,24 62.5,76.5T204,112t90,148.5T381.5,416T456,559.5T506,671q4,11 19,22t35,19t38,8q-4-16-23.5-59t-49-101.5T461.5,435t-70-131T325,185T272,97Q219,15 168.5-36T60-87ZM421,21q4,0 7,1t7,3q-4,1-8,1t-6,0q-5,0-6.5-0.5T413,24t2.5-2t5.5-1ZM603-27q-16,0-38,5.5t-44.5,14T482,9q-34-20-59-20q-19,0-33,10T376,25q0,32 48,32q12,0 24.5-1.5T476,51q30,26 59,66.5t48,86T602,290q0,34-13,48.5T556,353q-27,0-42.5-24.5T498,267q0-10 2.5-19t9.5-26H491q-22,5-34.5,16.5T444,274q0,29 15,54t42,40.5T564,384q42,0 69-28t27-69q0-43-18-88t-48.5-86T527,41q26-5 48.5-9.5T615,27q8,0 20,5.5T671,52Q661,12 645-7.5T603-27ZM140,314q-11,0-28,9.5T81,352q30,0 45.5,0.5T163,355q10,24 18.5,61T197,493t13,74.5T221,620q-19-10-28-14t-14-4q-10,0-16,6.5T157,632q9,5 28.5,18t44,31T278,717h4q2-1 2.5-2.5T286,711q2-4 2-9.5t0-7.5q0-12-13-76T236,427q-4-21-9-37.5T216,361q23,0 39.5-9T278,315q-10,1-26,2t-26,1q-28,0-46.5-2T140,314Z" />
      <glyph unicode="&#xbe;" glyph-name="gid177" horiz-adv-x="733" d="M100-87Q157-18 206,52t91,140t78,137t66.5,128.5T498,573t47,98q6,12 21,23t34.5,18.5T638,720q-4-17-22-57t-46-95.5t-61.5-119t-69-128t-69-122T310,98Q258,15 208.5-36T100-87Zm93,394q-35,0-56.5,12.5t-31,31T96,386q0,21 12.5,41T148,447q5,0 11-1t20-5q-13-10-20-23.5T152,391q0-19 13-35.5T198,339q26,0 48.5,28T269,435q0,28-16,55t-63,37q31,14 54,35t35.5,44.5T292,648q0,22-12,33t-26,11q-18,0-33-14t-15-34q0-7 3-15.5t7-17.5q-4-9-14-16t-18-7q-13,0-20.5,16.5T154,635q0,27 15.5,45.5t40,28T260,718q34,0 62.5-17.5T351,645q0-19-8.5-41T318,563.5T281,534q32-15 46.5-42T342,439q0-31-18.5-61.5t-52-50.5T193,307ZM608-27q-31,2-47,10.5T545,8q0,7 4,34t17,89q-8,1-16.5,1T533,132q-29,0-58-3t-50-8q0,16 4,25t8,13q32,27 73.5,63.5t81,78.5T655,383q20-2 21-21q0-9-12.5-50T633,174h10q8,0 21,2.5t32,5.5q-17-23-37-37.5T625,130q-1-11-4-31t-6-43t-5-45.5T608-27ZM507,177q12,0 29.5-0.5T577,176q5,24 7,37t4.5,22.5T595,258l-28-25q-17-15-26.5-23.5t-16.5-15T507,177Z" />
      <glyph unicode="&#xbf;" glyph-name="gid67" horiz-adv-x="437" d="M109-280Q42-280 0.5-244.5T-41-142q0,38 16,67.5t41,54T68.5,29t51,55T156,153q11,35 13,60t14,58q25-13 33.5-23t8.5-33q0-41-19-74.5T158.5,77t-57-60.5T54-49.5T35-129q0-54 22-82.5T112-240q35,0 68.5,27t56,72.5T259-41q0,17-2.5,33T248,27q49-7 65.5-29.5T330-57q0-57-27-108t-76.5-83T109-280Zm92,599q-15,0-25,7t-10,22q0,20 18.5,36T226,400q16,0 28-8t12-25q0-20-21.5-34T201,319Z" />
      <glyph unicode="&#xc0;" glyph-name="gid93" horiz-adv-x="631" d="M46-87Q16-71 8-54T0-25Q0,2 19.5,47.5T72,152t75,123q-31,2-59,3t-72,1H0q14,36 44.5,50.5T116,344q17,0 35.5-2t38.5-4q50,72 98.5,136t92,115.5T458,674q48,48 70,48q14,0 31.5-11T596,683q-10-8-25.5-41t-33-83.5T502.5,448T471,326T448.5,207.5T440,108q0-40 8-59.5T475,29q23,0 57,35t76,114l18-19Q595,77 545.5,24T440-29q-48,0-68,41.5T352,126q0,23 3,52t10,72q-44,7-78,11t-65,8q-48-85-93-176T46-87ZM375,299q13,59 30.5,119.5t37,116T481,634q-30-24-67-69T336.5,459T254,326q30-6 60-13t61-14ZM587,748q-23,28-49.5,53.5T470,858q2,20 11.5,29.5T502,897q15,0 34-13.5T572.5,850T601,811.5T612,784q0-7-6.5-19T587,748Z" />
      <glyph unicode="&#xc1;" glyph-name="gid90" horiz-adv-x="631" d="M46-87Q16-71 8-54T0-25Q0,2 19.5,47.5T72,152t75,123q-31,2-59,3t-72,1H0q14,36 44.5,50.5T116,344q17,0 35.5-2t38.5-4q50,72 98.5,136t92,115.5T458,674q48,48 70,48q14,0 31.5-11T596,683q-10-8-25.5-41t-33-83.5T502.5,448T471,326T448.5,207.5T440,108q0-40 8-59.5T475,29q23,0 57,35t76,114l18-19Q595,77 545.5,24T440-29q-48,0-68,41.5T352,126q0,23 3,52t10,72q-44,7-78,11t-65,8q-48-85-93-176T46-87ZM375,299q13,59 30.5,119.5t37,116T481,634q-30-24-67-69T336.5,459T254,326q30-6 60-13t61-14ZM595,748q-13,5-18.5,16.5T571,781q0,8 10,26.5t26,39t33.5,35T674,896q11,0 19.5-7.5T704,861q-35-34-61.5-59.5T595,748Z" />
      <glyph unicode="&#xc2;" glyph-name="gid91" horiz-adv-x="631" d="M46-87Q16-71 8-54T0-25Q0,2 19.5,47.5T72,152t75,123q-31,2-59,3t-72,1H0q14,36 44.5,50.5T116,344q17,0 35.5-2t38.5-4q50,72 98.5,136t92,115.5T458,674q48,48 70,48q14,0 31.5-11T596,683q-10-8-25.5-41t-33-83.5T502.5,448T471,326T448.5,207.5T440,108q0-40 8-59.5T475,29q23,0 57,35t76,114l18-19Q595,77 545.5,24T440-29q-48,0-68,41.5T352,126q0,23 3,52t10,72q-44,7-78,11t-65,8q-48-85-93-176T46-87ZM375,299q13,59 30.5,119.5t37,116T481,634q-30-24-67-69T336.5,459T254,326q30-6 60-13t61-14ZM684,744q-16,27-33.5,45.5T612,827q-27-9-51.5-22T510,775q-7,5-10,14t-3,14q0,15 13.5,30T544,860.5T583,881t30,8q12,0 28.5-10.5t32-27t25.5-35T709,783q0-10-5.5-21T684,744Z" />
      <glyph unicode="&#xc3;" glyph-name="gid95" horiz-adv-x="631" d="M46-87Q16-71 8-54T0-25Q0,2 19.5,47.5T72,152t75,123q-31,2-59,3t-72,1H0q14,36 44.5,50.5T116,344q17,0 35.5-2t38.5-4q50,72 98.5,136t92,115.5T458,674q48,48 70,48q14,0 31.5-11T596,683q-10-8-25.5-41t-33-83.5T502.5,448T471,326T448.5,207.5T440,108q0-40 8-59.5T475,29q23,0 57,35t76,114l18-19Q595,77 545.5,24T440-29q-48,0-68,41.5T352,126q0,23 3,52t10,72q-44,7-78,11t-65,8q-48-85-93-176T46-87ZM375,299q13,59 30.5,119.5t37,116T481,634q-30-24-67-69T336.5,459T254,326q30-6 60-13t61-14ZM667,755q-28,0-58,12t-59.5,24T494,803q-17,0-32.5-2.5T429,790q12,30 35,44.5T519,849q28,0 57.5-12T635,813t57-12q30,0 59,10q-14-27-33.5-41.5T667,755Z" />
      <glyph unicode="&#xc4;" glyph-name="gid92" horiz-adv-x="631" d="M46-87Q16-71 8-54T0-25Q0,2 19.5,47.5T72,152t75,123q-31,2-59,3t-72,1H0q14,36 44.5,50.5T116,344q17,0 35.5-2t38.5-4q50,72 98.5,136t92,115.5T458,674q48,48 70,48q14,0 31.5-11T596,683q-10-8-25.5-41t-33-83.5T502.5,448T471,326T448.5,207.5T440,108q0-40 8-59.5T475,29q23,0 57,35t76,114l18-19Q595,77 545.5,24T440-29q-48,0-68,41.5T352,126q0,23 3,52t10,72q-44,7-78,11t-65,8q-48-85-93-176T46-87ZM375,299q13,59 30.5,119.5t37,116T481,634q-30-24-67-69T336.5,459T254,326q30-6 60-13t61-14ZM667,753q-16,0-29,8.5T625,787q0,20 22.5,34T692,835q15,0 26-7t11-26q0-17-19.5-33T667,753ZM523,773q-16,0-29.5,8T480,807q0,19 22.5,33.5T547,855q16,0 26-7t10-25q0-17-18.5-33.5T523,773Z" />
      <glyph unicode="&#xc5;" glyph-name="gid94" horiz-adv-x="631" d="M46-87Q16-71 8-54T0-25Q0,2 19.5,47.5T72,152t75,123q-31,2-59,3t-72,1H0q14,36 44.5,50.5T116,344q17,0 35.5-2t38.5-4q50,72 98.5,136t92,115.5T458,674q48,48 70,48q14,0 31.5-11T596,683q-10-8-25.5-41t-33-83.5T502.5,448T471,326T448.5,207.5T440,108q0-40 8-59.5T475,29q23,0 57,35t76,114l18-19Q595,77 545.5,24T440-29q-48,0-68,41.5T352,126q0,23 3,52t10,72q-44,7-78,11t-65,8q-48-85-93-176T46-87ZM375,299q13,59 30.5,119.5t37,116T481,634q-30-24-67-69T336.5,459T254,326q30-6 60-13t61-14ZM585,754q-40,0-59,16.5T507,811q0,23 16,48.5t44,43T631,920q44,0 63-17t19-40t-17-48.5t-46-43T585,754Zm8,35q18,0 33.5,11T652,826.5T662,856q0,10-8,18t-27,8q-17,0-33-10.5T568.5,846T559,817q1-9 9-18.5t25-9.5Z" />
      <glyph unicode="&#xc6;" glyph-name="gid96" horiz-adv-x="790" d="M45-87Q15-71 7-54T-1-26Q-1,1 18.5,47T71,152t75,123q-34,2-58.5,3T46,279H-1q14,36 44.5,50.5T116,344q17,0 35-2t38-4q53,76 105.5,145t99,123T475,691t53,31q42,0 90-2.5t95-6t86-7.5t62-7q-7-20-35-31t-67.5-14.5T675,650q-28,0-53.5,0.5T571,652q-16-33-37.5-94.5T493,423q72-2 125.5-11T711,399q-8-20-35.5-31t-67-14.5T525,350q-18,0-29,0t-22,1q-16-70-25.5-136.5T439,100q0-10 1-18t2-15q33-5 73.5-8.5t81-6.5t76-6.5T730,36q-7-20-34.5-30.5t-67-14T545-12q-43,0-84.5,0.5T387-8q-20,18-28.5,54.5T350,126q0,29 4,60t10,64q-44,7-78,11t-65,8q-48-85-93-176T45-87ZM374,299q13,59 30.5,119.5t37,116T480,634q-30-24-67-69T335.5,459T253,326q32-6 64-14t57-13Z" />
      <glyph unicode="&#xc7;" glyph-name="gid97" horiz-adv-x="570" d="M250-87q-76,0-124.5,36t-71,93T32,160q0,79 24,158.5T122.5,470T219,598t115.5,88.5T457,719q44,0 74-20.5T561,628q0-30-10.5-67t-28-71.5T483,433t-45-22q-10,0-21,7t-20,24q15,17 34,41.5t36,52t28,54T506,636q0,18-10,28.5T461,675q-44,0-90.5-33T281,553.5t-77.5-124T149,288.5T129,151q0-48 14.5-91.5t46.5-71T274-39q54,0 107.5,30t98,79T551,175l26-17Q542,91 493,35.5t-110.5-89T250-87ZM387-233q-30,0-48,13.5T321-192q0,9 8,20.5T353-149q8-25 18.5-35T393-194q17,0 35.5,14.5t32,34T474-111q0,8-4.5,12T458-95q-12,0-27-9t-29-18.5T379-132t-15,9t-6,16q0,2 9,15t23,31.5T418-25T442,0h16L411-75q8,3 23,7.5T465-63q23,0 38.5-12.5T519-113q0-27-18.5-54.5T452-214t-65-19Z" />
      <glyph unicode="&#xc8;" glyph-name="gid102" horiz-adv-x="533" d="M209-87Q145-87 97-61.5T22.5,6.5T-4,101q0,44 19,87t53.5,78.5t81,60T251,359q-36,32-54,71t-18,80q0,53 27,101t76,78t114,30q61,0 94-29.5T523,604q0-39-14-74.5T475.5,472T437,450q-14,0-26.5,12.5T389,491q37,30 62.5,64T477,625q0,30-20,45.5T405,686q-45,0-75.5-27.5t-46-70T268,501q0-43 16-86.5T342,339q-72-11-125-49.5T135,200T106,99q0-30 12.5-63t41-55.5T236-42q55,0 108,30.5T441.5,69T513,175l27-17Q503,89 453,33.5t-111-88T209-87ZM450,748q-23,28-49.5,53.5T333,858q2,20 11.5,29.5T365,897q15,0 34-13.5T435.5,850T464,811.5T475,784q0-7-6.5-19T450,748Z" />
      <glyph unicode="&#xc9;" glyph-name="gid99" horiz-adv-x="533" d="M209-87Q145-87 97-61.5T22.5,6.5T-4,101q0,44 19,87t53.5,78.5t81,60T251,359q-36,32-54,71t-18,80q0,53 27,101t76,78t114,30q61,0 94-29.5T523,604q0-39-14-74.5T475.5,472T437,450q-14,0-26.5,12.5T389,491q37,30 62.5,64T477,625q0,30-20,45.5T405,686q-45,0-75.5-27.5t-46-70T268,501q0-43 16-86.5T342,339q-72-11-125-49.5T135,200T106,99q0-30 12.5-63t41-55.5T236-42q55,0 108,30.5T441.5,69T513,175l27-17Q503,89 453,33.5t-111-88T209-87ZM458,748q-13,5-18.5,16.5T434,781q0,8 10,26.5t26,39t33.5,35T537,896q11,0 19.5-7.5T567,861q-35-34-61.5-59.5T458,748Z" />
      <glyph unicode="&#xca;" glyph-name="gid100" horiz-adv-x="533" d="M209-87Q145-87 97-61.5T22.5,6.5T-4,101q0,44 19,87t53.5,78.5t81,60T251,359q-36,32-54,71t-18,80q0,53 27,101t76,78t114,30q61,0 94-29.5T523,604q0-39-14-74.5T475.5,472T437,450q-14,0-26.5,12.5T389,491q37,30 62.5,64T477,625q0,30-20,45.5T405,686q-45,0-75.5-27.5t-46-70T268,501q0-43 16-86.5T342,339q-72-11-125-49.5T135,200T106,99q0-30 12.5-63t41-55.5T236-42q55,0 108,30.5T441.5,69T513,175l27-17Q503,89 453,33.5t-111-88T209-87ZM547,744q-16,27-33.5,45.5T475,827q-27-9-51.5-22T373,775q-7,5-10,14t-3,14q0,15 13.5,30T407,860.5T446,881t30,8q12,0 28.5-10.5t32-27t25.5-35T572,783q0-10-5.5-21T547,744Z" />
      <glyph unicode="&#xcb;" glyph-name="gid101" horiz-adv-x="533" d="M209-87Q145-87 97-61.5T22.5,6.5T-4,101q0,44 19,87t53.5,78.5t81,60T251,359q-36,32-54,71t-18,80q0,53 27,101t76,78t114,30q61,0 94-29.5T523,604q0-39-14-74.5T475.5,472T437,450q-14,0-26.5,12.5T389,491q37,30 62.5,64T477,625q0,30-20,45.5T405,686q-45,0-75.5-27.5t-46-70T268,501q0-43 16-86.5T342,339q-72-11-125-49.5T135,200T106,99q0-30 12.5-63t41-55.5T236-42q55,0 108,30.5T441.5,69T513,175l27-17Q503,89 453,33.5t-111-88T209-87ZM530,753q-16,0-29,8.5T488,787q0,20 22.5,34T555,835q15,0 26-7t11-26q0-17-19.5-33T530,753ZM386,773q-16,0-29.5,8T343,807q0,19 22.5,33.5T410,855q16,0 26-7t10-25q0-17-18.5-33.5T386,773Z" />
      <glyph unicode="&#xcc;" glyph-name="gid106" horiz-adv-x="503" d="M-18-88q4,43 28,62.5T72,0t82,6q18,38 34.5,91.5t32,114.5t30,124.5t27.5,123T303,568t23,81q-51-1-90.5-4T161,637T89,625q11,50 63,72t159,22q53,0 110-4t105-9t75-9q-34-32-64-39.5T485,650q-33,0-58.5,0T377,649q-7-34-15.5-83t-19-105T322,349T302,244.5T284,164q-13-52-31-95T212,4Q265,0 319-6t119-8q-40-37-76-46.5T303-70q-67,0-111.5-0.5t-77.5-2T50.5-78T-18-88ZM371,747q-23,28-49.5,53.5T254,857q2,20 11.5,29.5T286,896q15,0 34-13.5T356.5,849T385,810.5T396,783q0-7-6.5-19T371,747Z" />
      <glyph unicode="&#xcd;" glyph-name="gid103" horiz-adv-x="503" d="M-18-88q4,43 28,62.5T72,0t82,6q18,38 34.5,91.5t32,114.5t30,124.5t27.5,123T303,568t23,81q-51-1-90.5-4T161,637T89,625q11,50 63,72t159,22q53,0 110-4t105-9t75-9q-34-32-64-39.5T485,650q-33,0-58.5,0T377,649q-7-34-15.5-83t-19-105T322,349T302,244.5T284,164q-13-52-31-95T212,4Q265,0 319-6t119-8q-40-37-76-46.5T303-70q-67,0-111.5-0.5t-77.5-2T50.5-78T-18-88ZM379,747q-13,5-18.5,16.5T355,780q0,8 10,26.5t26,39t33.5,35T458,895q11,0 19.5-7.5T488,860q-35-34-61.5-59.5T379,747Z" />
      <glyph unicode="&#xce;" glyph-name="gid104" horiz-adv-x="503" d="M-18-88q4,43 28,62.5T72,0t82,6q18,38 34.5,91.5t32,114.5t30,124.5t27.5,123T303,568t23,81q-51-1-90.5-4T161,637T89,625q11,50 63,72t159,22q53,0 110-4t105-9t75-9q-34-32-64-39.5T485,650q-33,0-58.5,0T377,649q-7-34-15.5-83t-19-105T322,349T302,244.5T284,164q-13-52-31-95T212,4Q265,0 319-6t119-8q-40-37-76-46.5T303-70q-67,0-111.5-0.5t-77.5-2T50.5-78T-18-88ZM468,743q-16,27-33.5,45.5T396,826q-27-9-51.5-22T294,774q-7,5-10,14t-3,14q0,15 13.5,30T328,859.5T367,880t30,8q12,0 28.5-10.5t32-27t25.5-35T493,782q0-10-5.5-21T468,743Z" />
      <glyph unicode="&#xcf;" glyph-name="gid105" horiz-adv-x="503" d="M-18-88q4,43 28,62.5T72,0t82,6q18,38 34.5,91.5t32,114.5t30,124.5t27.5,123T303,568t23,81q-51-1-90.5-4T161,637T89,625q11,50 63,72t159,22q53,0 110-4t105-9t75-9q-34-32-64-39.5T485,650q-33,0-58.5,0T377,649q-7-34-15.5-83t-19-105T322,349T302,244.5T284,164q-13-52-31-95T212,4Q265,0 319-6t119-8q-40-37-76-46.5T303-70q-67,0-111.5-0.5t-77.5-2T50.5-78T-18-88ZM451,752q-16,0-29,8.5T409,786q0,20 22.5,34T476,834q15,0 26-7t11-26q0-17-19.5-33T451,752ZM307,772q-16,0-29.5,8T264,806q0,19 22.5,33.5T331,854q16,0 26-7t10-25q0-17-18.5-33.5T307,772Z" />
      <glyph unicode="&#xd0;" glyph-name="gid98" horiz-adv-x="688" d="M192-87q-36,0-67.5,9.5T70-37q14,68 36.5,152T154,278q-27-1-60-4.5T28,265q17,34 54.5,47T170,328q22,69 42,127.5T241,537q3,8 10,24t18,33t25.5,28.5T326,634t38-14q-28-64-56-138.5T255,330q53,0 104-4t79-6q-37-25-70.5-33T311,279H239q-28-87-50.5-170T151-44q11-1 19.5-2T189-47q64,0 124,28T424.5,58T515,170t60.5,134T597,446q0,120-59.5,176.5T383,679q-65,0-116.5-23.5t-81-64.5T156,499q0-11 2-23.5t7-24.5q-43,0-61.5,18.5T85,515q0,35 25.5,71t71,66.5t105,49T415,720q99,0 158.5-39t86-103.5T686,435q0-86-27.5-164t-76-143.5T471,14T336.5-60.5T192-87Z" />
      <glyph unicode="&#xd1;" glyph-name="gid108" horiz-adv-x="674" d="M56-87Q71-37 90,22.5t44,140T192,354t76,262q1,3 4,15t3,24q0,8-2.5,11T262,669q-21,0-40.5-17t-35-42.5t-24-53T154,507q0-24 10-47q-44,0-62,18.5T84,525q0,34 21,68.5t53.5,63t68,46T291,720q35,0 57.5-25.5t37-69.5T410,525t19-118q12-80 19-127.5T459.5,204t8-47t7.5-43q12,48 24.5,101.5T525,324t25.5,107.5T576,530t25.5,81.5T626,668q9,16 28.5,34.5T707,721q-17-45-38.5-111.5T625,465.5t-42.5-158T546,151.5T520.5,14T511-87q-37,0-60.5,17.5T415-1q-4,17-12,57t-18,94.5T364,265T343,382.5t-18,103T312,555q-45-164-77-277.5t-56-185T136-18T98-72T56-87ZM588,755q-28,0-58,12t-59.5,24T415,803q-17,0-32.5-2.5T350,790q12,30 35,44.5T440,849q28,0 57.5-12T556,813t57-12q30,0 59,10q-14-27-33.5-41.5T588,755Z" />
      <glyph unicode="&#xd2;" glyph-name="gid112" horiz-adv-x="655" d="M242-87q-58,0-106,30.5T60,30T32,164q0,77 24,155.5t66,150t98,128t119.5,89T470,719q10,0 29.5-4T538,691q-6,1-13.5,1.5T509,693q-52,0-105-32.5T303,573T217.5,448.5T158,304T136,158q0-52 14-97t45-72.5T277-39q55,0 103,33t87,88.5t67,124t43,141T592,486q0,29-4,62.5T574.5,606T547,630q-17,0-37-21.5T471,554t-33.5-69.5T417,419q-34,7-48.5,22T354,477q0,27 19,60t49.5,63.5t64,50.5T549,671q30,0 48.5-21.5T626,594t14-72.5t4-71.5q0-102-25-186.5T551.5,114T456.5,4t-108-68T242-87ZM543,748q-23,28-49.5,53.5T426,858q2,20 11.5,29.5T458,897q15,0 34-13.5T528.5,850T557,811.5T568,784q0-7-6.5-19T543,748Z" />
      <glyph unicode="&#xd3;" glyph-name="gid109" horiz-adv-x="655" d="M242-87q-58,0-106,30.5T60,30T32,164q0,77 24,155.5t66,150t98,128t119.5,89T470,719q10,0 29.5-4T538,691q-6,1-13.5,1.5T509,693q-52,0-105-32.5T303,573T217.5,448.5T158,304T136,158q0-52 14-97t45-72.5T277-39q55,0 103,33t87,88.5t67,124t43,141T592,486q0,29-4,62.5T574.5,606T547,630q-17,0-37-21.5T471,554t-33.5-69.5T417,419q-34,7-48.5,22T354,477q0,27 19,60t49.5,63.5t64,50.5T549,671q30,0 48.5-21.5T626,594t14-72.5t4-71.5q0-102-25-186.5T551.5,114T456.5,4t-108-68T242-87ZM551,748q-13,5-18.5,16.5T527,781q0,8 10,26.5t26,39t33.5,35T630,896q11,0 19.5-7.5T660,861q-35-34-61.5-59.5T551,748Z" />
      <glyph unicode="&#xd4;" glyph-name="gid110" horiz-adv-x="655" d="M242-87q-58,0-106,30.5T60,30T32,164q0,77 24,155.5t66,150t98,128t119.5,89T470,719q10,0 29.5-4T538,691q-6,1-13.5,1.5T509,693q-52,0-105-32.5T303,573T217.5,448.5T158,304T136,158q0-52 14-97t45-72.5T277-39q55,0 103,33t87,88.5t67,124t43,141T592,486q0,29-4,62.5T574.5,606T547,630q-17,0-37-21.5T471,554t-33.5-69.5T417,419q-34,7-48.5,22T354,477q0,27 19,60t49.5,63.5t64,50.5T549,671q30,0 48.5-21.5T626,594t14-72.5t4-71.5q0-102-25-186.5T551.5,114T456.5,4t-108-68T242-87ZM640,744q-16,27-33.5,45.5T568,827q-27-9-51.5-22T466,775q-7,5-10,14t-3,14q0,15 13.5,30T500,860.5T539,881t30,8q12,0 28.5-10.5t32-27t25.5-35T665,783q0-10-5.5-21T640,744Z" />
      <glyph unicode="&#xd5;" glyph-name="gid114" horiz-adv-x="655" d="M242-87q-58,0-106,30.5T60,30T32,164q0,77 24,155.5t66,150t98,128t119.5,89T470,719q10,0 29.5-4T538,691q-6,1-13.5,1.5T509,693q-52,0-105-32.5T303,573T217.5,448.5T158,304T136,158q0-52 14-97t45-72.5T277-39q55,0 103,33t87,88.5t67,124t43,141T592,486q0,29-4,62.5T574.5,606T547,630q-17,0-37-21.5T471,554t-33.5-69.5T417,419q-34,7-48.5,22T354,477q0,27 19,60t49.5,63.5t64,50.5T549,671q30,0 48.5-21.5T626,594t14-72.5t4-71.5q0-102-25-186.5T551.5,114T456.5,4t-108-68T242-87ZM623,755q-28,0-58,12t-59.5,24T450,803q-17,0-32.5-2.5T385,790q12,30 35,44.5T475,849q28,0 57.5-12T591,813t57-12q30,0 59,10q-14-27-33.5-41.5T623,755Z" />
      <glyph unicode="&#xd6;" glyph-name="gid111" horiz-adv-x="655" d="M242-87q-58,0-106,30.5T60,30T32,164q0,77 24,155.5t66,150t98,128t119.5,89T470,719q10,0 29.5-4T538,691q-6,1-13.5,1.5T509,693q-52,0-105-32.5T303,573T217.5,448.5T158,304T136,158q0-52 14-97t45-72.5T277-39q55,0 103,33t87,88.5t67,124t43,141T592,486q0,29-4,62.5T574.5,606T547,630q-17,0-37-21.5T471,554t-33.5-69.5T417,419q-34,7-48.5,22T354,477q0,27 19,60t49.5,63.5t64,50.5T549,671q30,0 48.5-21.5T626,594t14-72.5t4-71.5q0-102-25-186.5T551.5,114T456.5,4t-108-68T242-87ZM623,753q-16,0-29,8.5T581,787q0,20 22.5,34T648,835q15,0 26-7t11-26q0-17-19.5-33T623,753ZM479,773q-16,0-29.5,8T436,807q0,19 22.5,33.5T503,855q16,0 26-7t10-25q0-17-18.5-33.5T479,773Z" />
      <glyph unicode="&#xd7;" glyph-name="gid202" horiz-adv-x="405" d="M325,20q-22,16-64,48t-83,72q-19-18-37-36.5T105.5,65T68,19Q58,35 58,46q0,26 24,59.5T140,176q-30,31-49,58.5T72,285q0,5 1.5,11T81,314q24-31 46.5-54.5T176,210q38,35 75.5,66T309,322q-6-47-24.5-75T246,202l-30-27l49-45q15-14 33-41.5T325,20Z" />
      <glyph unicode="&#xd8;" glyph-name="gid113" horiz-adv-x="654" d="M70-101q-8,0-17.5,1.5T32-96Q52-83 70-67.5T104-34Q70-2 50,48T30,166q0,76 24.5,154t67,149.5T219,597t117,88.5T460,718q18,0 34.5-4.5T523,692H509q-52,0-105.5-32.5T302,571.5t-85.5-125T157,302.5T135,158q0-35 6.5-69.5T161,28q40,49 85,108.5T337,260t89.5,127T507,505.5T572,603q-5,13-11,19.5T546,629q-17,0-37.5-22T469,551.5T435.5,482T415,418q-33,8-47.5,23T353,476q0,27 19.5,60T422,599.5T485,650t60,20q17,0 31-7.5T600,642q8,11 33,20t48,9q5,0 10.5-0.5T710,668q-10-13-28-39t-48-70q6-26 8-52.5t2-50.5q0-105-25.5-190.5T550.5,114T455.5,3T348-65T243-88q-24,0-45,5T157-70q-24-16-47-23.5T70-101ZM273-40q57,0 106,33.5T467,83t67,126t42.5,144.5T591,497q-33-47-72-102T441,285T367.5,181.5T307.5,97T271,46Q256,26 241,7.5T211-25q13-7 28-11t34-4Z" />
      <glyph unicode="&#xd9;" glyph-name="gid120" horiz-adv-x="750" d="M588-99q-37,0-63.5,33T498,13q0,8 0.5,22T500,65Q464-2 412-45T287-88q-67,0-104.5,40T145,64q0,44 12,95.5T187,266t36,110.5T253,486t12,102q0,90-54,90q-27,0-46-17t-31.5-42.5T115,567t-6-44q0-15 4-32.5t9-31.5q-48,0-68.5,22T33,536q0,31 15,63t42.5,59.5t64.5,44T235,719q61,0 88.5-35T351,590q0-37-9-82t-23-93t-28-93q-25-81-41-140.5T234,75q0-46 19-77.5T317-34q41,0 75,25.5t59.5,66T495,143t27,84q14,59 31,126t35.5,132T626,603t37.5,84.5T700,719q10,0 27.5-10.5T764,680q-9-7-26-42t-38-90T657.5,427t-39-135.5T590,158T579,44q0-62 21-82t73-20q-11-19-37-30T588-99ZM514,748q-23,28-49.5,53.5T397,858q2,20 11.5,29.5T429,897q15,0 34-13.5T499.5,850T528,811.5T539,784q0-7-6.5-19T514,748Z" />
      <glyph unicode="&#xda;" glyph-name="gid117" horiz-adv-x="750" d="M588-99q-37,0-63.5,33T498,13q0,8 0.5,22T500,65Q464-2 412-45T287-88q-67,0-104.5,40T145,64q0,44 12,95.5T187,266t36,110.5T253,486t12,102q0,90-54,90q-27,0-46-17t-31.5-42.5T115,567t-6-44q0-15 4-32.5t9-31.5q-48,0-68.5,22T33,536q0,31 15,63t42.5,59.5t64.5,44T235,719q61,0 88.5-35T351,590q0-37-9-82t-23-93t-28-93q-25-81-41-140.5T234,75q0-46 19-77.5T317-34q41,0 75,25.5t59.5,66T495,143t27,84q14,59 31,126t35.5,132T626,603t37.5,84.5T700,719q10,0 27.5-10.5T764,680q-9-7-26-42t-38-90T657.5,427t-39-135.5T590,158T579,44q0-62 21-82t73-20q-11-19-37-30T588-99ZM522,748q-13,5-18.5,16.5T498,781q0,8 10,26.5t26,39t33.5,35T601,896q11,0 19.5-7.5T631,861q-35-34-61.5-59.5T522,748Z" />
      <glyph unicode="&#xdb;" glyph-name="gid118" horiz-adv-x="750" d="M588-99q-37,0-63.5,33T498,13q0,8 0.5,22T500,65Q464-2 412-45T287-88q-67,0-104.5,40T145,64q0,44 12,95.5T187,266t36,110.5T253,486t12,102q0,90-54,90q-27,0-46-17t-31.5-42.5T115,567t-6-44q0-15 4-32.5t9-31.5q-48,0-68.5,22T33,536q0,31 15,63t42.5,59.5t64.5,44T235,719q61,0 88.5-35T351,590q0-37-9-82t-23-93t-28-93q-25-81-41-140.5T234,75q0-46 19-77.5T317-34q41,0 75,25.5t59.5,66T495,143t27,84q14,59 31,126t35.5,132T626,603t37.5,84.5T700,719q10,0 27.5-10.5T764,680q-9-7-26-42t-38-90T657.5,427t-39-135.5T590,158T579,44q0-62 21-82t73-20q-11-19-37-30T588-99Zm23,843q-16,27-33.5,45.5T539,827q-27-9-51.5-22T437,775q-7,5-10,14t-3,14q0,15 13.5,30T471,860.5T510,881t30,8q12,0 28.5-10.5t32-27t25.5-35T636,783q0-10-5.5-21T611,744Z" />
      <glyph unicode="&#xdc;" glyph-name="gid119" horiz-adv-x="750" d="M588-99q-37,0-63.5,33T498,13q0,8 0.5,22T500,65Q464-2 412-45T287-88q-67,0-104.5,40T145,64q0,44 12,95.5T187,266t36,110.5T253,486t12,102q0,90-54,90q-27,0-46-17t-31.5-42.5T115,567t-6-44q0-15 4-32.5t9-31.5q-48,0-68.5,22T33,536q0,31 15,63t42.5,59.5t64.5,44T235,719q61,0 88.5-35T351,590q0-37-9-82t-23-93t-28-93q-25-81-41-140.5T234,75q0-46 19-77.5T317-34q41,0 75,25.5t59.5,66T495,143t27,84q14,59 31,126t35.5,132T626,603t37.5,84.5T700,719q10,0 27.5-10.5T764,680q-9-7-26-42t-38-90T657.5,427t-39-135.5T590,158T579,44q0-62 21-82t73-20q-11-19-37-30T588-99Zm6,852q-16,0-29,8.5T552,787q0,20 22.5,34T619,835q15,0 26-7t11-26q0-17-19.5-33T594,753ZM450,773q-16,0-29.5,8T407,807q0,19 22.5,33.5T474,855q16,0 26-7t10-25q0-17-18.5-33.5T450,773Z" />
      <glyph unicode="&#xdd;" glyph-name="gid121" horiz-adv-x="706" d="M286-187q-61,0-102.5,25.5T142-88q0,31 19.5,56T218,1q-6-27-8.5-41T207-67q0-40 22-62.5T298-152q34,0 60.5,11.5t47,32t36,47.5t27,58.5T488,62q16,64 25,125.5T534,287q-39-63-90-102.5T325,145q-67,0-95,37t-28,91q0,37 9.5,80.5t22.5,89t22.5,88T266,606q0,30-11.5,51T212,678q-27,0-46.5-15.5t-32-40.5T115,569t-6-54q0-16 2.5-27t9.5-29q-49,0-69,22.5T32,536q0,30 15,62.5t42.5,60T154,703t80,17q40,0 66-15t38.5-40T351,610q0-22-7-53t-21-82t-25-96.5T287,293q0-42 16-68t55-26q34,0 64.5,19.5t57.5,53T529,348t38,91q13,38 26.5,85.5t29,92.5t33,74T693,720q11,0 30.5-10T761,682q-22-33-37.5-63t-29-65T667,471.5t-31-115T596,193q-13-52-29.5-105.5T526.5-15T470-103t-78-61.5T286-187ZM513,748q-13,5-18.5,16.5T489,781q0,8 10,26.5t26,39t33.5,35T592,896q11,0 19.5-7.5T622,861q-35-34-61.5-59.5T513,748Z" />
      <glyph unicode="&#xde;" glyph-name="gid116" horiz-adv-x="543" d="M133-87q-30,0-57,16T49-30q0,11 4.5,27T62,26q40,124 84,253.5T242,542q-39-7-68.5-20T125,498.5T99,488q-5,0-15,6.5t-17.5,16T59,527q36,14 89,31.5T259,581q8,18 16,41t19,44.5T319,702t34,14q6,0 14-3t18-15q-13-25-26-55t-25-62q43-6 85-20t77-38.5T552,463t21-82q0-55-28-94t-72.5-64.5T377,182t-98.5-22T199,152Q180,89 164.5,27.5T133-87Zm75,273q53,7 103.5,23.5t91,43t64.5,64T491,402q0,50-25,81t-64,46t-82,17q-31-83-58.5-174T208,186Z" />
      <glyph unicode="&#xdf;" glyph-name="gid151" horiz-adv-x="471" d="M-43-115q14,19 25.5,64T4,57.5t21.5,137T52,343T88,486.5T137.5,609T205,694.5T296,726q50,0 84.5-30.5T415,608q0-50-26.5-94.5T323,434t-78-58q48-14 81-46.5t50-76T393,161q0-43-13-86.5T343-4T287-60.5T216-82q-38,0-59.5,20.5T127-10t-8,63q0,33 7,61.5t22,46T186,178q5,0 12.5-0.5T225,173q-14-7-25.5-29T181,91t-7-65q0-29 7-51.5T206-48q16,0 34.5,18.5t34.5,50t26.5,69T312,164q0,53-22,101t-61,80q-7,5-15.5,14T205,378t8.5,19.5T232,415q25,22 51.5,49.5t44.5,63T346,608q0,18-4.5,35.5t-17,29.5T288,685q-38,0-65-31.5t-45.5-85T145,447.5T119,307T93.5,163.5T62.5,34t-43-98.5T-43-115Z" />
      <glyph unicode="&#xe0;" glyph-name="gid125" horiz-adv-x="444" d="M56-47Q23-47-1.5-25T-26,41q0,35 16,76t44,81t64,72.5T175,323t82,20q43,0 73-22t30-58q0-27-19-39t-45-7q2,9 3.5,18t1.5,19q0,20-8,36t-34,16q-28,0-57-19t-55.5-49.5T99,170.5T66,99T54,36Q54,4 77,4t51,22.5T184.5,83T239,152.5T284,213q3,5 8,5q4-1 15.5-4.5T329,203t10-18q0-10-8.5-25.5t-20-34t-20-37T282,53q0-13 7-24.5T312,17q24,0 67.5,35.5T468,173l19-19q-24-54-57.5-95.5T359-6.5T284-30q-41,0-61,26T201,52q0,2 0,3t0,2Q161,9 127.5-19T56-47ZM331,409q-23,28-49.5,53.5T214,519q2,20 11.5,29.5T246,558q15,0 34-13.5T316.5,511T345,472.5T356,445q0-7-6.5-19T331,409Z" />
      <glyph unicode="&#xe1;" glyph-name="gid122" horiz-adv-x="444" d="M56-47Q23-47-1.5-25T-26,41q0,35 16,76t44,81t64,72.5T175,323t82,20q43,0 73-22t30-58q0-27-19-39t-45-7q2,9 3.5,18t1.5,19q0,20-8,36t-34,16q-28,0-57-19t-55.5-49.5T99,170.5T66,99T54,36Q54,4 77,4t51,22.5T184.5,83T239,152.5T284,213q3,5 8,5q4-1 15.5-4.5T329,203t10-18q0-10-8.5-25.5t-20-34t-20-37T282,53q0-13 7-24.5T312,17q24,0 67.5,35.5T468,173l19-19q-24-54-57.5-95.5T359-6.5T284-30q-41,0-61,26T201,52q0,2 0,3t0,2Q161,9 127.5-19T56-47ZM306,410q-13,5-18.5,16.5T282,443q0,8 10,26.5t26,39t33.5,35T385,558q11,0 19.5-7.5T415,523q-35-34-61.5-59.5T306,410Z" />
      <glyph unicode="&#xe2;" glyph-name="gid123" horiz-adv-x="444" d="M56-47Q23-47-1.5-25T-26,41q0,35 16,76t44,81t64,72.5T175,323t82,20q43,0 73-22t30-58q0-27-19-39t-45-7q2,9 3.5,18t1.5,19q0,20-8,36t-34,16q-28,0-57-19t-55.5-49.5T99,170.5T66,99T54,36Q54,4 77,4t51,22.5T184.5,83T239,152.5T284,213q3,5 8,5q4-1 15.5-4.5T329,203t10-18q0-10-8.5-25.5t-20-34t-20-37T282,53q0-13 7-24.5T312,17q24,0 67.5,35.5T468,173l19-19q-24-54-57.5-95.5T359-6.5T284-30q-41,0-61,26T201,52q0,2 0,3t0,2Q161,9 127.5-19T56-47ZM395,402q-16,27-33.5,45.5T323,485q-27-9-51.5-22T221,433q-7,5-10,14t-3,14q0,15 13.5,30T255,518.5T294,539t30,8q12,0 28.5-10.5t32-27t25.5-35T420,441q0-10-5.5-21T395,402Z" />
      <glyph unicode="&#xe3;" glyph-name="gid127" horiz-adv-x="444" d="M56-47Q23-47-1.5-25T-26,41q0,35 16,76t44,81t64,72.5T175,323t82,20q43,0 73-22t30-58q0-27-19-39t-45-7q2,9 3.5,18t1.5,19q0,20-8,36t-34,16q-28,0-57-19t-55.5-49.5T99,170.5T66,99T54,36Q54,4 77,4t51,22.5T184.5,83T239,152.5T284,213q3,5 8,5q4-1 15.5-4.5T329,203t10-18q0-10-8.5-25.5t-20-34t-20-37T282,53q0-13 7-24.5T312,17q24,0 67.5,35.5T468,173l19-19q-24-54-57.5-95.5T359-6.5T284-30q-41,0-61,26T201,52q0,2 0,3t0,2Q161,9 127.5-19T56-47ZM403,397q-28,0-58,12t-59.5,24T230,445q-17,0-32.5-2.5T165,432q12,30 35,44.5T255,491q28,0 57.5-12T371,455t57-12q30,0 59,10q-14-27-33.5-41.5T403,397Z" />
      <glyph unicode="&#xe4;" glyph-name="gid124" horiz-adv-x="444" d="M56-47Q23-47-1.5-25T-26,41q0,35 16,76t44,81t64,72.5T175,323t82,20q43,0 73-22t30-58q0-27-19-39t-45-7q2,9 3.5,18t1.5,19q0,20-8,36t-34,16q-28,0-57-19t-55.5-49.5T99,170.5T66,99T54,36Q54,4 77,4t51,22.5T184.5,83T239,152.5T284,213q3,5 8,5q4-1 15.5-4.5T329,203t10-18q0-10-8.5-25.5t-20-34t-20-37T282,53q0-13 7-24.5T312,17q24,0 67.5,35.5T468,173l19-19q-24-54-57.5-95.5T359-6.5T284-30q-41,0-61,26T201,52q0,2 0,3t0,2Q161,9 127.5-19T56-47ZM375,417q-16,0-29,8.5T333,451q0,20 22.5,34T400,499q15,0 26-7t11-26q0-17-19.5-33T375,417ZM231,437q-16,0-29.5,8T188,471q0,19 22.5,33.5T255,519q16,0 26-7t10-25q0-17-18.5-33.5T231,437Z" />
      <glyph unicode="&#xe5;" glyph-name="gid126" horiz-adv-x="444" d="M56-47Q23-47-1.5-25T-26,41q0,35 16,76t44,81t64,72.5T175,323t82,20q43,0 73-22t30-58q0-27-19-39t-45-7q2,9 3.5,18t1.5,19q0,20-8,36t-34,16q-28,0-57-19t-55.5-49.5T99,170.5T66,99T54,36Q54,4 77,4t51,22.5T184.5,83T239,152.5T284,213q3,5 8,5q4-1 15.5-4.5T329,203t10-18q0-10-8.5-25.5t-20-34t-20-37T282,53q0-13 7-24.5T312,17q24,0 67.5,35.5T468,173l19-19q-24-54-57.5-95.5T359-6.5T284-30q-41,0-61,26T201,52q0,2 0,3t0,2Q161,9 127.5-19T56-47ZM321,398q-40,0-59,16.5T243,455q0,23 16,48.5t44,43T367,564q44,0 63-17t19-40t-17-48.5t-46-43T321,398Zm8,35q18,0 33.5,11T388,470.5T398,500q0,10-8,18t-27,8q-17,0-33-10.5T304.5,490T295,461q1-9 9-18.5t25-9.5Z" />
      <glyph unicode="&#xe6;" glyph-name="gid128" horiz-adv-x="556" d="M58-47Q24-47-1-25T-26,41q0,35 16,76t44,81t64.5,73T176,324t83,20q27,0 45.5-10T332,307q31,23 65.5,38T464,360q26,0 48.5-13T535,294q0-38-22-71t-59-59t-81.5-42.5T283,100q-1-7-1.5-14.5T281,72q2-26 17.5-49.5T358-1q43,0 85,23.5t78,63T582,172l19-16Q574,95 531.5,50T439-19.5T337-44q-58,0-91.5,29T205,56Q165,7 130-20T58-47ZM80,8q26,0 59.5,29T204,105q7,44 32.5,89.5T299,276q-4,12-14,19.5T257,303q-28,0-56.5-18.5t-54-48.5T101,171T69.5,101T58,39Q58,8 80,8ZM293,137q27,10 59,26.5t61,38T460,248t18,53q0,7-3.5,10.5T462,315q-22,0-47-15.5T366.5,258t-43-57.5T293,137Z" />
      <glyph unicode="&#xe7;" glyph-name="gid129" horiz-adv-x="333" d="M113-56Q61-56 27.5-23.5T-6,76q0,49 19,96t51,84.5T135.5,316T216,338q42,0 60.5-21T295,268t-13.5-54.5T245,187q-19,0-31,19q10,7 21,26t11,49q0,8-4,12.5T227,298q-25,0-52.5-22.5t-51-58t-38-75T71,70q0-28 14.5-51.5T142-5q38,0 79,22t77,61.5T356,173l20-18Q352,94 309.5,46.5t-94-75T113-56Zm76-177q-30,0-48,13.5T123-192q0,9 8,20.5T155-149q8-25 18.5-35T195-194q17,0 35.5,14.5t32,34T276-111q0,8-4.5,12T260-95q-12,0-27-9t-29-18.5T181-132t-15,9t-6,16q0,2 9,15t23,31.5T220-25T244,0h16L213-75q8,3 23,7.5T267-63q23,0 38.5-12.5T321-113q0-27-18.5-54.5T254-214t-65-19Z" />
      <glyph unicode="&#xe8;" glyph-name="gid134" horiz-adv-x="341" d="M116-44Q52-44 17.5-9.5T-17,77q0,44 22.5,93.5t60.5,93T150,334t92,27q26,0 49.5-13.5T315,294q0-38-22-71t-59-59t-81.5-42.5T63,100q-1-4-1.5-8.5T61,77q0-5 1.5-17.5T71,33T94,9T138-1q42,0 84.5,23.5t80,62.5T365,172l20-16Q358,96 315.5,51t-94-70T116-44ZM74,137q26,3 58,18t61.5,38T242,243.5T261,299q0,11-4,15t-13,4q-23,0-48-16.5t-49-43T104,200T74,137ZM313,418q-23,28-49.5,53.5T196,528q2,20 11.5,29.5T228,567q15,0 34-13.5T298.5,520T327,481.5T338,454q0-7-6.5-19T313,418Z" />
      <glyph unicode="&#xe9;" glyph-name="gid131" horiz-adv-x="341" d="M116-44Q52-44 17.5-9.5T-17,77q0,44 22.5,93.5t60.5,93T150,334t92,27q26,0 49.5-13.5T315,294q0-38-22-71t-59-59t-81.5-42.5T63,100q-1-4-1.5-8.5T61,77q0-5 1.5-17.5T71,33T94,9T138-1q42,0 84.5,23.5t80,62.5T365,172l20-16Q358,96 315.5,51t-94-70T116-44ZM74,137q26,3 58,18t61.5,38T242,243.5T261,299q0,11-4,15t-13,4q-23,0-48-16.5t-49-43T104,200T74,137ZM288,419q-13,5-18.5,16.5T264,452q0,8 10,26.5t26,39t33.5,35T367,567q11,0 19.5-7.5T397,532q-35-34-61.5-59.5T288,419Z" />
      <glyph unicode="&#xea;" glyph-name="gid132" horiz-adv-x="341" d="M116-44Q52-44 17.5-9.5T-17,77q0,44 22.5,93.5t60.5,93T150,334t92,27q26,0 49.5-13.5T315,294q0-38-22-71t-59-59t-81.5-42.5T63,100q-1-4-1.5-8.5T61,77q0-5 1.5-17.5T71,33T94,9T138-1q42,0 84.5,23.5t80,62.5T365,172l20-16Q358,96 315.5,51t-94-70T116-44ZM74,137q26,3 58,18t61.5,38T242,243.5T261,299q0,11-4,15t-13,4q-23,0-48-16.5t-49-43T104,200T74,137ZM377,411q-16,27-33.5,45.5T305,494q-27-9-51.5-22T203,442q-7,5-10,14t-3,14q0,15 13.5,30T237,527.5T276,548t30,8q12,0 28.5-10.5t32-27t25.5-35T402,450q0-10-5.5-21T377,411Z" />
      <glyph unicode="&#xeb;" glyph-name="gid133" horiz-adv-x="341" d="M116-44Q52-44 17.5-9.5T-17,77q0,44 22.5,93.5t60.5,93T150,334t92,27q26,0 49.5-13.5T315,294q0-38-22-71t-59-59t-81.5-42.5T63,100q-1-4-1.5-8.5T61,77q0-5 1.5-17.5T71,33T94,9T138-1q42,0 84.5,23.5t80,62.5T365,172l20-16Q358,96 315.5,51t-94-70T116-44ZM74,137q26,3 58,18t61.5,38T242,243.5T261,299q0,11-4,15t-13,4q-23,0-48-16.5t-49-43T104,200T74,137ZM357,426q-16,0-29,8.5T315,460q0,20 22.5,34T382,508q15,0 26-7t11-26q0-17-19.5-33T357,426ZM213,446q-16,0-29.5,8T170,480q0,19 22.5,33.5T237,528q16,0 26-7t10-25q0-17-18.5-33.5T213,446Z" />
      <glyph unicode="&#xec;" glyph-name="gid140" horiz-adv-x="244" d="M80-30Q36-30 14-4T-8,59q0,23 8,58t22.5,73.5T56,263t41,55.5T141,340q12,0 21-7.5t9-21.5q0-13-15.5-39t-36-60t-36-70.5T68,72q0-32 11.5-42.5T113,19q34,0 74,34t83,119l15-16Q250,68 196,19T80-30ZM205,415q-23,28-49.5,53.5T88,525q2,20 11.5,29.5T120,564q15,0 34-13.5T190.5,517T219,478.5T230,451q0-7-6.5-19T205,415Z" />
      <glyph unicode="&#xed;" glyph-name="gid136" horiz-adv-x="229" d="M80-30Q36-30 14-4T-8,59q0,23 8,58t22.5,73.5T56,263t41,55.5T141,340q12,0 21-7.5t9-21.5q0-13-15.5-39t-36-60t-36-70.5T68,72q0-32 11.5-42.5T113,19q34,0 74,34t83,119l15-16Q250,68 196,19T80-30ZM193,410q-13,5-18.5,16.5T169,443q0,8 10,26.5t26,39t33.5,35T272,558q11,0 19.5-7.5T302,523q-35-34-61.5-59.5T193,410Z" />
      <glyph unicode="&#xee;" glyph-name="gid137" horiz-adv-x="270" d="M80-30Q36-30 14-4T-8,59q0,23 8,58t22.5,73.5T56,263t41,55.5T141,340q12,0 21-7.5t9-21.5q0-13-15.5-39t-36-60t-36-70.5T68,72q0-32 11.5-42.5T113,19q34,0 74,34t83,119l15-16Q250,68 196,19T80-30ZM286,402q-16,27-33.5,45.5T214,485q-27-9-51.5-22T112,433q-7,5-10,14t-3,14q0,15 13.5,30T146,518.5T185,539t30,8q12,0 28.5-10.5t32-27t25.5-35T311,441q0-10-5.5-21T286,402Z" />
      <glyph unicode="&#xef;" glyph-name="gid138" horiz-adv-x="228" d="M80-30Q36-30 14-4T-8,59q0,23 8,58t22.5,73.5T56,263t41,55.5T141,340q12,0 21-7.5t9-21.5q0-13-15.5-39t-36-60t-36-70.5T68,72q0-32 11.5-42.5T113,19q34,0 74,34t83,119l15-16Q250,68 196,19T80-30ZM246,415q-16,0-29,8.5T204,449q0,20 22.5,34T271,497q15,0 26-7t11-26q0-17-19.5-33T246,415ZM102,435q-16,0-29.5,8T59,469q0,19 22.5,33.5T126,517q16,0 26-7t10-25q0-17-18.5-33.5T102,435Z" />
      <glyph unicode="&#xf0;" glyph-name="gid130" horiz-adv-x="488" d="M59-30Q31-30 6-8.5T-19,58q0,34 16,75t43.5,82.5T103,291t74,55t78,21q30,0 45.5-12T316,326q0-6-2-12t-6-14q-18,23-49,23t-59.5-18.5t-53-48.5t-43-64.5t-29-67T64,69q0-19 8-30.5T95,27q21,0 50,21t60,57.5t60.5,84T317,290q20,47 31.5,94.5T360,478q0,11-1,20t-3,23q-15-2-39.5-7T269,504t-37-9q0,27 15.5,41T289,557t55,11q-11,32-34,63.5T249,692q21,27 51,27q33,0 58.5-20.5t44-53T431,577q24,2 55.5,6.5T537,594q-15-25-28.5-37.5t-29-17T441,532q2-11 3-20.5t1-22.5q0-48-16.5-104.5T391,270T353.5,159T337,65q0-17 5-27t19-10q21,0 49,18.5T466.5,99T516,178l19-12q-23-56-57-99.5t-72.5-68T328-26q-41,0-57,27T255,62q0,19 3,38.5t6,35.5q-30-44-66-82T126-7T59-30Z" />
      <glyph unicode="&#xf1;" glyph-name="gid142" horiz-adv-x="473" d="M337-20q-39,0-59.5,19.5T257,49q0,20 7,42.5T278,137t7,44q0,22-10.5,30.5T250,220q-30,0-61.5-24.5t-61-61.5T72,57T27-15Q8-15-9-8.5T-38,14q1,5 11.5,30.5t23.5,61T20,180t10,71q7,8 21.5,16T82,275q35,0 35-30q0-12-4.5-35.5T100,156q26,35 57,66t64.5,50.5T289,292q43,0 63.5-29T373,199q0-30-10-56T343.5,94T334,49q0-16 7.5-22.5T358,20q24,0 50,23t49.5,58.5T499,173l17-14q-21-49-47.5-89.5t-59-65T337-20Zm32,371q-28,0-58,12t-59.5,24T196,399q-17,0-32.5-2.5T131,386q12,30 35,44.5T221,445q28,0 57.5-12T337,409t57-12q30,0 59,10q-14-27-33.5-41.5T369,351Z" />
      <glyph unicode="&#xf2;" glyph-name="gid146" horiz-adv-x="372" d="M66-32Q21-32 4.5-2.5T-12,62q0,32 10,65.5T25.5,190t39,46.5T108,254q7,0 16.5-2.5T138,244q-12-15-24.5-37t-23-46.5T74,111T68,65q0-20 7.5-33T102,19t45.5,21.5T198,90q-32,29-46,63.5T138,237q0,21 10.5,48t34,47T246,352q43,0 60.5-24T324,271q0-37-19.5-83T258,101q12-6 28-6q15,0 36,7t41,23.5T395,170l18-13q-22-51-58.5-74.5T283,59q-13,0-26,2.5T233,68Q199,28 155-2T66-32ZM224,122q24,35 41,75t17,74q0,23-7,33.5T254,315q-19,0-39-27t-20-68q0-21 7.5-51T224,122Zm84,301q-23,28-49.5,53.5T191,533q2,20 11.5,29.5T223,572q15,0 34-13.5T293.5,525T322,486.5T333,459q0-7-6.5-19T308,423Z" />
      <glyph unicode="&#xf3;" glyph-name="gid143" horiz-adv-x="372" d="M66-32Q21-32 4.5-2.5T-12,62q0,32 10,65.5T25.5,190t39,46.5T108,254q7,0 16.5-2.5T138,244q-12-15-24.5-37t-23-46.5T74,111T68,65q0-20 7.5-33T102,19t45.5,21.5T198,90q-32,29-46,63.5T138,237q0,21 10.5,48t34,47T246,352q43,0 60.5-24T324,271q0-37-19.5-83T258,101q12-6 28-6q15,0 36,7t41,23.5T395,170l18-13q-22-51-58.5-74.5T283,59q-13,0-26,2.5T233,68Q199,28 155-2T66-32ZM224,122q24,35 41,75t17,74q0,23-7,33.5T254,315q-19,0-39-27t-20-68q0-21 7.5-51T224,122Zm59,302q-13,5-18.5,16.5T259,457q0,8 10,26.5t26,39t33.5,35T362,572q11,0 19.5-7.5T392,537q-35-34-61.5-59.5T283,424Z" />
      <glyph unicode="&#xf4;" glyph-name="gid144" horiz-adv-x="372" d="M66-32Q21-32 4.5-2.5T-12,62q0,32 10,65.5T25.5,190t39,46.5T108,254q7,0 16.5-2.5T138,244q-12-15-24.5-37t-23-46.5T74,111T68,65q0-20 7.5-33T102,19t45.5,21.5T198,90q-32,29-46,63.5T138,237q0,21 10.5,48t34,47T246,352q43,0 60.5-24T324,271q0-37-19.5-83T258,101q12-6 28-6q15,0 36,7t41,23.5T395,170l18-13q-22-51-58.5-74.5T283,59q-13,0-26,2.5T233,68Q199,28 155-2T66-32ZM224,122q24,35 41,75t17,74q0,23-7,33.5T254,315q-19,0-39-27t-20-68q0-21 7.5-51T224,122ZM372,416q-16,27-33.5,45.5T300,499q-27-9-51.5-22T198,447q-7,5-10,14t-3,14q0,15 13.5,30T232,532.5T271,553t30,8q12,0 28.5-10.5t32-27t25.5-35T397,455q0-10-5.5-21T372,416Z" />
      <glyph unicode="&#xf5;" glyph-name="gid148" horiz-adv-x="372" d="M66-32Q21-32 4.5-2.5T-12,62q0,32 10,65.5T25.5,190t39,46.5T108,254q7,0 16.5-2.5T138,244q-12-15-24.5-37t-23-46.5T74,111T68,65q0-20 7.5-33T102,19t45.5,21.5T198,90q-32,29-46,63.5T138,237q0,21 10.5,48t34,47T246,352q43,0 60.5-24T324,271q0-37-19.5-83T258,101q12-6 28-6q15,0 36,7t41,23.5T395,170l18-13q-22-51-58.5-74.5T283,59q-13,0-26,2.5T233,68Q199,28 155-2T66-32ZM224,122q24,35 41,75t17,74q0,23-7,33.5T254,315q-19,0-39-27t-20-68q0-21 7.5-51T224,122ZM380,411q-28,0-58,12t-59.5,24T207,459q-17,0-32.5-2.5T142,446q12,30 35,44.5T232,505q28,0 57.5-12T348,469t57-12q30,0 59,10q-14-27-33.5-41.5T380,411Z" />
      <glyph unicode="&#xf6;" glyph-name="gid145" horiz-adv-x="350" d="M66-32Q21-32 4.5-2.5T-12,62q0,32 10,65.5T25.5,190t39,46.5T108,254q7,0 16.5-2.5T138,244q-12-15-24.5-37t-23-46.5T74,111T68,65q0-20 7.5-33T102,19t45.5,21.5T198,90q-32,29-46,63.5T138,237q0,21 10.5,48t34,47T246,352q43,0 60.5-24T324,271q0-37-19.5-83T258,101q12-6 28-6q15,0 36,7t41,23.5T395,170l18-13q-22-51-58.5-74.5T283,59q-13,0-26,2.5T233,68Q199,28 155-2T66-32ZM224,122q24,35 41,75t17,74q0,23-7,33.5T254,315q-19,0-39-27t-20-68q0-21 7.5-51T224,122ZM354,411q-16,0-29,8.5T312,445q0,20 22.5,34T379,493q15,0 26-7t11-26q0-17-19.5-33T354,411ZM210,431q-16,0-29.5,8T167,465q0,19 22.5,33.5T234,513q16,0 26-7t10-25q0-17-18.5-33.5T210,431Z" />
      <glyph unicode="&#xf7;" glyph-name="gid203" horiz-adv-x="491" d="M26,116q8,30 39,43t75.5,16.5T235,179q36,0 73.5-2t69.5-4t50-4q-22-15-47-24t-61-13t-92-4q-43,0-90-2T26,116ZM185-15q-15,0-28,8T144,18q0,19 21.5,33T209,65q15,0 24.5-7T243,34q0-16-18-32.5T185-15Zm58,249q-15,0-28,8t-13,25q0,19 21.5,33T267,314q15,0 24.5-7t9.5-24q0-16-17.5-32.5T243,234Z" />
      <glyph unicode="&#xf8;" glyph-name="gid147" horiz-adv-x="372" d="M66-32q-17,0-26,4Q23-39 6.5-45T-26-51q-5,0-9.5,1T-45-48q11,6 24,17T6-5Q-4,9-8,26t-4,36q0,32 10,65.5T25.5,190t39,46.5T108,254q8,0 14.5-2.5T138,245q-9-5-21-25T94,172T75.5,115T68,62q20,23 41,48.5T150,162q-5,17-8,36t-3,42q0,34 13,59t37.5,39T246,352q24,0 42-10q6,8 12,16t12,16q5,7 16.5,11t27.5,4q5,0 11.5-0.5T380,386q-4-7-21-29t-40-52q5-17 5-34q0-37-19.5-83T258,101q17-10 37-10q29,0 55.5,20.5T395,170l18-13q-22-51-58.5-74.5T283,59q-13,0-26,2.5T233,68Q199,28 155-2T66-32ZM198,90q-7,7-14,14t-12,15q-23-29-42-54T93,20q3-1 9-1q19,0 45.5,21.5T198,90Zm26,32q22,31 38,67.5T281,258q-19-25-38-49t-38-49q3-11 8-21t11-17Zm42,190q-2,2-5.5,2.5T254,315q-13,0-26.5-12.5t-23-34.5T195,218q18,23 35.5,47T266,312Z" />
      <glyph unicode="&#xf9;" glyph-name="gid155" horiz-adv-x="441" d="M76-30Q42-30 20.5,1.5T-1,74q0,28 9,66t23.5,74t30,60T90,298q7,0 21.5-7.5T137,272q-11-16-26.5-49T83,152T71,83q0-4 1.5-19T80,36t21-13q17,0 36.5,18.5t40,48t40,63.5t35,66T278,273q9-1 23.5-5T327,257.5T338,239q0-3-9.5-24.5t-22-51.5t-22-61.5T275,46q0-14 5.5-24.5T302,11q21,0 50,19t60,55t55,86l15-12q-22-54-57-97T350-5.5T272-30q-29,0-43.5,13.5T209,18.5T203,62q0,5 0,10.5t0,9.5q-17-27-37-52.5T123.5-13T76-30ZM270,369q-23,28-49.5,53.5T153,479q2,20 11.5,29.5T185,518q15,0 34-13.5T255.5,471T284,432.5T295,405q0-7-6.5-19T270,369Z" />
      <glyph unicode="&#xfa;" glyph-name="gid152" horiz-adv-x="441" d="M76-30Q42-30 20.5,1.5T-1,74q0,28 9,66t23.5,74t30,60T90,298q7,0 21.5-7.5T137,272q-11-16-26.5-49T83,152T71,83q0-4 1.5-19T80,36t21-13q17,0 36.5,18.5t40,48t40,63.5t35,66T278,273q9-1 23.5-5T327,257.5T338,239q0-3-9.5-24.5t-22-51.5t-22-61.5T275,46q0-14 5.5-24.5T302,11q21,0 50,19t60,55t55,86l15-12q-22-54-57-97T350-5.5T272-30q-29,0-43.5,13.5T209,18.5T203,62q0,5 0,10.5t0,9.5q-17-27-37-52.5T123.5-13T76-30ZM245,370q-13,5-18.5,16.5T221,403q0,8 10,26.5t26,39t33.5,35T324,518q11,0 19.5-7.5T354,483q-35-34-61.5-59.5T245,370Z" />
      <glyph unicode="&#xfb;" glyph-name="gid153" horiz-adv-x="441" d="M76-30Q42-30 20.5,1.5T-1,74q0,28 9,66t23.5,74t30,60T90,298q7,0 21.5-7.5T137,272q-11-16-26.5-49T83,152T71,83q0-4 1.5-19T80,36t21-13q17,0 36.5,18.5t40,48t40,63.5t35,66T278,273q9-1 23.5-5T327,257.5T338,239q0-3-9.5-24.5t-22-51.5t-22-61.5T275,46q0-14 5.5-24.5T302,11q21,0 50,19t60,55t55,86l15-12q-22-54-57-97T350-5.5T272-30q-29,0-43.5,13.5T209,18.5T203,62q0,5 0,10.5t0,9.5q-17-27-37-52.5T123.5-13T76-30ZM334,362q-16,27-33.5,45.5T262,445q-27-9-51.5-22T160,393q-7,5-10,14t-3,14q0,15 13.5,30T194,478.5T233,499t30,8q12,0 28.5-10.5t32-27t25.5-35T359,401q0-10-5.5-21T334,362Z" />
      <glyph unicode="&#xfc;" glyph-name="gid154" horiz-adv-x="441" d="M76-30Q42-30 20.5,1.5T-1,74q0,28 9,66t23.5,74t30,60T90,298q7,0 21.5-7.5T137,272q-11-16-26.5-49T83,152T71,83q0-4 1.5-19T80,36t21-13q17,0 36.5,18.5t40,48t40,63.5t35,66T278,273q9-1 23.5-5T327,257.5T338,239q0-3-9.5-24.5t-22-51.5t-22-61.5T275,46q0-14 5.5-24.5T302,11q21,0 50,19t60,55t55,86l15-12q-22-54-57-97T350-5.5T272-30q-29,0-43.5,13.5T209,18.5T203,62q0,5 0,10.5t0,9.5q-17-27-37-52.5T123.5-13T76-30ZM314,377q-16,0-29,8.5T272,411q0,20 22.5,34T339,459q15,0 26-7t11-26q0-17-19.5-33T314,377ZM170,397q-16,0-29.5,8T127,431q0,19 22.5,33.5T194,479q16,0 26-7t10-25q0-17-18.5-33.5T170,397Z" />
      <glyph unicode="&#xfd;" glyph-name="gid156" horiz-adv-x="400" d="M48-280q-25,0-46.5,15.5T-20-215q0,32 19,57.5t49,47t64.5,39T179-39q11,29 24.5,73.5T227,117q-31-43-66-76T83,8Q65,8 45,15.5t-33.5,26T-2,91q0,26 9.5,63t24,72.5t30.5,59T90,309q6,0 17.5-4.5t22.5-12T144,276q-9-12-20-34.5t-21-50T86.5,138T80,93q0-15 6-26t23-11q22,0 45.5,18t46,46T241,177q2,7 4,22t7,31q5,17 17.5,31T305,275q8,0 15-1t17-3q0-15-10.5-58.5T299,112T261-2q42,17 87.5,56.5T422,167l17-14q-15-50-45.5-87T325,3T248-40q-27-65-58.5-120T123-247.5T48-280ZM38-243q19,0 53,40T160-83q-32-16-64.5-37.5T41-166T19-215q0-10 4.5-19T38-243ZM237,381q-13,5-18.5,16.5T213,414q0,8 10,26.5t26,39t33.5,35T316,529q11,0 19.5-7.5T346,494q-35-34-61.5-59.5T237,381Z" />
      <glyph unicode="&#xfe;" glyph-name="gid150" horiz-adv-x="415" d="M-54-280q-9,0-17.5,10T-86-248.5T-92-234q24,79 45.5,155.5T-6,82.5T29,269T58,500q2,14 5.5,18.5T85,523q29,0 41.5-12T139,465q0-14-2-35t-5.5-45.5t-7.5-52T115.5,278T107,226q19,29 43.5,55.5t55,43.5T271,342q48,0 81-32.5T385,222q0-39-18-83T316.5,56.5T239-6.5T139-31q-32,0-50.5,8T70-5q0,8 10.5,9.5T103,6q40,0 76.5,18T244,72.5T288.5,139T305,211q0,29-12.5,50T250,282q-26,0-51.5-16T151,225.5T112,175T87,129Q68,49 50.5-19T17-139.5T-13.5-226T-41-273q-6-7-13-7Z" />
      <glyph unicode="&#xff;" glyph-name="gid157" horiz-adv-x="400" d="M48-280q-25,0-46.5,15.5T-20-215q0,32 19,57.5t49,47t64.5,39T179-39q11,29 24.5,73.5T227,117q-31-43-66-76T83,8Q65,8 45,15.5t-33.5,26T-2,91q0,26 9.5,63t24,72.5t30.5,59T90,309q6,0 17.5-4.5t22.5-12T144,276q-9-12-20-34.5t-21-50T86.5,138T80,93q0-15 6-26t23-11q22,0 45.5,18t46,46T241,177q2,7 4,22t7,31q5,17 17.5,31T305,275q8,0 15-1t17-3q0-15-10.5-58.5T299,112T261-2q42,17 87.5,56.5T422,167l17-14q-15-50-45.5-87T325,3T248-40q-27-65-58.5-120T123-247.5T48-280ZM38-243q19,0 53,40T160-83q-32-16-64.5-37.5T41-166T19-215q0-10 4.5-19T38-243ZM306,388q-16,0-29,8.5T264,422q0,20 22.5,34T331,470q15,0 26-7t11-26q0-17-19.5-33T306,388ZM162,408q-16,0-29.5,8T119,442q0,19 22.5,33.5T186,490q16,0 26-7t10-25q0-17-18.5-33.5T162,408Z" />
      <glyph unicode="&#x2013;" glyph-name="gid185" horiz-adv-x="755" d="M50,105q6,39 31,59.5T160.5,192T307,199q69,0 115-2.5t81.5-6t71-6.5t83.5-4q-52-34-97.5-47T485,120q-52,0-86.5,1t-58,3t-43,3T255,128q-46,0-83-2t-66.5-7T50,105Z" />
      <glyph unicode="&#x2014;" glyph-name="gid184" horiz-adv-x="917" d="M63,105q6,39 46.5,59.5t110,27.5T381,199q69,0 128.5-2.5t112.5-6T724,184t97-4q-52-34-96-48t-74-14q-69,0-135.5,2.5t-119.5,5T312,128q-49,0-82.5-1t-60-4t-51-7.5T63,105Z" />
      <glyph unicode="&#x2018;" glyph-name="gid77" horiz-adv-x="183" d="M221,573q-12,19-29.5,40T161,654.5T147,689q0,14 12,24.5T185,724q6-18 23-37.5t32-38T255,614q0-12-11-23t-23-18Z" />
      <glyph unicode="&#x2019;" glyph-name="gid78" horiz-adv-x="164" d="M177,571q-12,7-23,18t-11,23q0,16 15,34.5t32,38T213,722q14,0 26-10.5T251,687t-13.5-34.5T207,611t-30-40Z" />
      <glyph unicode="&#x201a;" glyph-name="gid79" horiz-adv-x="216" d="M32-88Q19-80 12-68.5T5-44Q5-24 14,0T37.5,41.5T68,59q13,0 22.5-10T100,26Q76-1 63-26T32-88Z" />
      <glyph unicode="&#x201c;" glyph-name="gid80" horiz-adv-x="307" d="M345,573q-12,19-29.5,40T285,654.5T271,689q0,14 12,24.5T309,724q6-18 23-37.5t32-38T379,614q0-12-11-23t-23-18Zm-124,0q-12,19-29.5,40T161,654.5T147,689q0,14 12,24.5T185,724q6-18 23-37.5t32-38T255,614q0-12-11-23t-23-18Z" />
      <glyph unicode="&#x201d;" glyph-name="gid81" horiz-adv-x="290" d="M302,573q-12,7-23,18t-11,23q0,16 15,34.5t32,38T338,724q14,0 26-10.5T376,689t-13.5-34.5T332,613t-30-40Zm-124,0q-12,7-23,18t-11,23q0,16 15,34.5t32,38T214,724q14,0 26-10.5T252,689t-13.5-34.5T208,613t-30-40Z" />
      <glyph unicode="&#x201e;" glyph-name="gid82" horiz-adv-x="326" d="M142-88q-13,8-20,19.5T115-44q0,20 9,44t23.5,41.5T178,59q13,0 22.5-10T210,26Q186-1 173-26T142-88ZM32-88Q19-80 12-68.5T5-44Q5-24 14,0T37.5,41.5T68,59q13,0 22.5-10T100,26Q76-1 63-26T32-88Z" />
      <glyph unicode="&#x2022;" glyph-name="gid180" horiz-adv-x="272" d="M109,113q-19,0-33.5,12T61,158q0,15 9.5,32t25,28.5T129,230q26,0 42-15.5T187,177q0-13-12-28t-30-25.5T109,113Z" />
      <glyph unicode="&#x2039;" glyph-name="gid189" horiz-adv-x="324" d="M195,41q-19,0-45.5,12T96,83.5T49.5,122T25,158q37,15 74.5,43T169,261.5T221,321q8-9 11-19t3-15q0-20-15-39.5T181,210t-51.5-34T76,147q20-14 39-26t48-24.5T239,67q-8-9-20-17.5T195,41Z" />
      <glyph unicode="&#x203a;" glyph-name="gid190" horiz-adv-x="338" d="M111,41q-12,0-24,8.5T67,67q48,17 76.5,29.5t48,24.5T230,147q-25,13-52.5,28.5t-52,33.5T86,246.5T71,285q0,5 3,15.5T85,321q20-27 52-59.5T207,201t74-43q-5-16-24.5-36T210,83.5T156.5,53T111,41Z" />
    </font>
</defs>
</svg>
